/* XPM */
static char *ba3c60a7354c481ad507b29594477890jfJLddqgSNNzDCQm[] = {
/* columns rows colors chars-per-pixel */
"64 64 255 2 ",
"   c #030104",
".  c #0A0203",
"X  c #03000B",
"o  c #09010C",
"O  c #0D0909",
"+  c #120B06",
"@  c #040114",
"#  c #090113",
"$  c #04011B",
"%  c #0A011C",
"&  c #0B0915",
"*  c #1E150E",
"=  c #221A13",
"-  c #2A211A",
";  c #050123",
":  c #0B0123",
">  c #05012A",
",  c #0B012B",
"<  c #090921",
"1  c #12022C",
"2  c #120425",
"3  c #050133",
"4  c #0B0134",
"5  c #0C013B",
"6  c #06023B",
"7  c #130233",
"8  c #13013B",
"9  c #150839",
"0  c #2D2722",
"q  c #473F36",
"w  c #4F463F",
"e  c #0D0144",
"r  c #0D014B",
"t  c #050049",
"y  c #130144",
"u  c #14014B",
"i  c #1A024B",
"p  c #190344",
"a  c #0B0152",
"s  c #0A0057",
"d  c #130152",
"f  c #1B0153",
"g  c #14025B",
"h  c #1A015C",
"j  c #1B0959",
"k  c #1E104B",
"l  c #23035C",
"z  c #221155",
"x  c #0D0266",
"c  c #140264",
"v  c #1B0064",
"b  c #1B026C",
"n  c #16046A",
"m  c #150274",
"M  c #1B0174",
"N  c #1A067A",
"B  c #0D0478",
"V  c #240263",
"C  c #26046A",
"Z  c #220173",
"A  c #23027B",
"S  c #290878",
"D  c #35037B",
"F  c #2C1871",
"G  c #372479",
"H  c #5B5550",
"J  c #1A0485",
"K  c #160790",
"L  c #240183",
"P  c #270688",
"I  c #36068B",
"U  c #361C8A",
"Y  c #270595",
"T  c #330999",
"R  c #2B1599",
"E  c #361996",
"W  c #28128B",
"Q  c #3A2593",
"!  c #1D03A6",
"~  c #1C10AF",
"^  c #2507A7",
"/  c #340AA7",
"(  c #3716A9",
")  c #2C0AB7",
"_  c #350DB6",
"`  c #2B13B3",
"'  c #3716B7",
"]  c #2D19A9",
"[  c #3823A5",
"{  c #3B29BB",
"}  c #441B99",
"|  c #45078D",
" . c #44289B",
".. c #4F3998",
"X. c #4419A6",
"o. c #4619B6",
"O. c #581ABA",
"+. c #470CB0",
"@. c #4827A7",
"#. c #4628B8",
"$. c #552CB8",
"%. c #4B32B8",
"&. c #5B37BA",
"*. c #532DAB",
"=. c #6932B4",
"-. c #5943B3",
";. c #6F51B6",
":. c #3819C5",
">. c #310FCB",
",. c #3C26C7",
"<. c #3326D0",
"1. c #481AC8",
"2. c #451AD9",
"3. c #4727C7",
"4. c #532AC4",
"5. c #4934C7",
"6. c #5738C9",
"7. c #4728D5",
"8. c #552AD7",
"9. c #5839D7",
"0. c #4530D5",
"q. c #6426C7",
"w. c #653AC7",
"e. c #6639D4",
"r. c #7331CD",
"t. c #573AEB",
"y. c #4E36F1",
"u. c #6439E8",
"i. c #7D38E3",
"p. c #3D51CE",
"a. c #5A44C9",
"s. c #5C44D8",
"d. c #5350D2",
"f. c #6749C9",
"g. c #7548CA",
"h. c #6A54CA",
"j. c #765ACA",
"k. c #6848DA",
"l. c #754BD9",
"z. c #6A56D9",
"x. c #7758D8",
"c. c #7C66CA",
"v. c #7965D7",
"b. c #6E65D5",
"n. c #4A45E7",
"m. c #5745E8",
"M. c #5947F3",
"N. c #5755EC",
"B. c #6748E6",
"V. c #7248E7",
"C. c #6C53E2",
"Z. c #6958E6",
"A. c #7658E8",
"S. c #6948F5",
"D. c #764DFA",
"F. c #6857F4",
"G. c #7759F7",
"H. c #5C63EA",
"J. c #7C64EB",
"K. c #7A66E7",
"L. c #7966F8",
"P. c #716DEF",
"I. c #5665DC",
"U. c #8B4DB7",
"Y. c #8731C8",
"T. c #855ADC",
"R. c #9052D0",
"E. c #B050D7",
"W. c #8569C7",
"Q. c #8969DA",
"!. c #966AD6",
"~. c #8976D8",
"^. c #9577D8",
"/. c #9970CC",
"(. c #A67ADB",
"). c #AE70DA",
"_. c #8659E6",
"`. c #9856E7",
"'. c #8658F8",
"]. c #9250F0",
"[. c #A65BF6",
"{. c #B55AE9",
"}. c #8B64EC",
"|. c #836BEC",
" X c #8767E6",
".X c #926CE6",
"XX c #9568E8",
"oX c #8C72EC",
"OX c #8876E6",
"+X c #947BEC",
"@X c #9679E7",
"#X c #8768F9",
"$X c #9669F8",
"%X c #8976F9",
"&X c #9473FD",
"*X c #937BFD",
"=X c #9978F8",
"-X c #AA6BE8",
";X c #A779EA",
":X c #B57AEA",
">X c #A568F5",
",X c #B76AFC",
"<X c #A57AF9",
"1X c #B67AFA",
"2X c #B969EA",
"3X c #C95AE7",
"4X c #C476FD",
"5X c #C96DEB",
"6X c #E772FD",
"7X c #9888DD",
"8X c #8680D8",
"9X c #AA87D9",
"0X c #B58AD9",
"qX c #AD92D1",
"wX c #8C84EA",
"eX c #9986E8",
"rX c #9D84FD",
"tX c #9989F6",
"yX c #958CF5",
"uX c #A888E8",
"iX c #B789E7",
"pX c #A895E9",
"aX c #B798E9",
"sX c #A484FD",
"dX c #A48AFE",
"fX c #A888F7",
"gX c #B788F9",
"hX c #A996F8",
"jX c #B292FE",
"kX c #B39CFC",
"lX c #BC9CFD",
"zX c #BA96F5",
"xX c #BBA6E5",
"cX c #B8A3F8",
"vX c #AFA0F3",
"bX c #BEA0DE",
"nX c #C69DDC",
"mX c #C18DDF",
"MX c #C489E9",
"NX c #C596E7",
"BX c #C689F8",
"VX c #C39CFF",
"CX c #C997F9",
"ZX c #D597FA",
"AX c #D491F3",
"SX c #EB90FC",
"DX c #C6A6E9",
"FX c #CAB1E7",
"GX c #C3A5FE",
"HX c #C6A7F8",
"JX c #D7A4F7",
"KX c #D6B7FC",
"LX c #CCB2F6",
"PX c #ECAAFF",
"IX c #C5A8DE",
/* pixels */
".       . . . + . . . . .     . . o $ $ $ $ @ @ @ $ ; > ; @ & @ ; ; < $ @ @ o X # # $ @ # @ @ X X X X X X X X X X @ @ X X       ",
".   . - + * * + * . - . . .   o X . # % $ @ @ @ @ $ > > > 9 < $ 3 3 6 3 > ; : : % : % % % # X X o @ X X . X X X @ X @ @ X       ",
".   O H - q q - q = H + O O   o . . X @ @ X X X o X < > 4 4 > 9 t a t t r a r y 4 1 : : % # @ X @ X X X X   X   X @ X X X       ",
"  O O H 0 q w - q = H + o o       . . X @ o o O & % > 5 y f l G G U U Q U S v r u 5 , , : % $ @ @ o o .       X X X X X X       ",
"  + . - = * = + * . 0 + . o & o .   X $ @ $ # # % 9 8 V } } } D h v b A W W E  .v u 3 < : : : % @ o X X .     X X X X X X X     ",
"  O     O   . . . . . O   o & X X X @ $ ; : % : 7 p V *.*.I I A I S N J K Y ( %.Q F y 4 , : : : @ @ o o X .   X X X X X X X     ",
"        +   . . . . . o . # o X @ @ $ ; ; : , 4 i g @.w.o.Y T X.T Y Y ) 2.7.3.{ a.Q v e 5 , % % % $ # o X .   O     X X X X X   ",
"    O     . . . . . . X @ @ @ & @ % ; ; : , 4 8 d S 6.4./ q.T.T.A.4./ #.D.#XG.s.z.%.N g i 8 1 2 : % # # X .         X X X X X X ",
"    . . . . . . . . o o # # @ @ # % % & % 1 9 u h E A.' w.lXiXKXGX-.j.+XsXdX|.6.&.a.W M g u 7 : ; ; % % o X     X   X X X X X   ",
"X X X X . . O o . o o # @ @ $ % # % 2 1 1 1 8 f b X.u.o._.VXJXDX(.;.fXVXkXjX+Xh.%.k.Y N C j 8 8 8 8 , : & & o     X   X X X X X ",
"X X     X . o . o o o # @ $ $ : 2 : , 8 p y f v L #.i.o.$XZXKXnXT.T.JXVXjXjX<XR.4.'.' N N h 6 y e 6 3 > : % X X X X   X X X X X ",
"X X X X . X . o o o # @ @ @ ; : k i y d h V Z A P +.'.O._.ZXJXPXR.`.ZXgXBXBX:X;.e.'.e.Y P N g n d d y 4 > $ X X X   X X X X X   ",
"X X X X X . X o o o # % $ $ : , 3 d C M L P I T +.q.[.r.Y.5X4XPXR.E.SXAXSXAX).U.>X1X$X4.^ J N x x g a y , : % & X X X X X X X X ",
"X X X X . X X o o # @ # $ : ; , z ..j.Q._._.'.`.`.,X,X].Y.{.6XSXE.5XSXSXSX5X5XE.1X4XgX'.s.6.d.p.-.&...G k > @ @ X X   X X     X ",
"X X X   . X o X @ # # $ $ : > 4 4 F *.6.6.e.r.r.R.E.3X{.Y.3X6X6X3X6X6X6X3X3X3XE.4X,X>X6.3.~ ~ K J W F g e , : & X X X X X X X   ",
"X X X X X X o o # o # @ $ ; < , 5 y g m L P I D I | ,X3XE.{.5X3XE.3XE.3X5X5XE.U.`.].q.J K K J K m c s e 4 > $ @ @ X X   X   X   ",
"    X X o @ o o o o o @ @ $ ; > 3 9 d g h l V C D | | >X1X[.,X[.).AXAXBX:X<Xl.4.e.#.Y N M c x g r e 6 4 : : % % o # @ X         ",
"      X X o o o o X X o & $ ; : > 4 5 p y 8 p l Z P T q.-X<XT._.zXxXpXpX@XA.k.B.:./ N n h d u y 5 3 , ; : % % o # o o X X       ",
"    X X @ o # o o o o o $ $ : > , 1 7 8 8 8 p f V Z A I g.$X=.g.tXuXkXhXeXf.f.G./ J m j f p y 5 4 4 > : % % # # # @ o X X X     ",
"  X   X X o @ o o X # # % ; , , 1 , , 7 8 p y f v Z A P E -.x.Q.eXOXOXv.j.a.s.k./ P b h i y 8 8 4 > , ; $ # @ o o o X X X X X X ",
"      X X @ o @ o # # % : > 4 8 p 8 8 8 p i h v b A P J J 6.x.rXcXwXwXK.tX|.G.V.R P Z V f y y p 4 4 > : % @ @ o X X X X @ @ @ @ ",
"    X   X X o o o # # 2 1 7 8 y f h f f h v M A m N P Y 4.#Xw.&XkX7X7XvXcX=X'.V.^ Y A C l i i u y 4 7 , : : % o # X @ @ X @ $ @ ",
"      X X @ @ o # % % 2 7 8 y h c M Z Z A J Y Y T Y ( o.u.'.6.XXKXFXxXLXaXfX$X].O.| I C V l l l i i p 7 8 2 : % @ X X X @ @ @ $ ",
"  X X X X X X @ # % 2 1 8 y i v L T } @.@.o.#.1.4.4.9.u.1.o._.JXLXFXIXLXCXZX[.q.r.q.+.I D S Z Z V l l l i 8 7 : & @ @ X X @ @ $ ",
"    X   X @ @ # & % 1 7 p i V b X.e.$.&.@.X.9.e.l.&.e.l.q.O.r.;XaX0X(.MX:X2XY.q.1.q.Y.q.q.1.+./ | D V l l f 8 9 : $ # o o @ @ @ ",
"  X   X X X X @ @ $ 7 8 p l C } g._..XVXjXA.$X&XA.T.<XBXBX<X;X).).W.U.U.U.U.Y.].[.[.,X[.[.].8.1.O.=.=.| C l l 7 7 % # o @ o # @ ",
"    X X X X @ @ % % 7 p y S S g.R.:XCXVXGX;XjX@X^.;XgXCXCXZXJXZXZXBX:XMXiXAXZXSXZXBXBXBX1X>Xe.q.E.[.-Xr.| D C i 8 1 % o o # # @ ",
"        X @ o & % : 8 i f S } T.^.MXCXNXiX(.uX^.^.@XgXzXCXZXJXCXCXVXzXCXJXJXBXBXAXBXBXiX1X:X-X>X,X4X4X[.r.| D V p 1 % # # o # o ",
"    X X X o o $ $ 1 4 u C S $.T.).AXAXCX0XuXuX^.^.+XeXfXVXHXaXiX=XdXtXeXuX;X@X;X1X:XgXiXiX:X,XBX4X4X4X,XT.} D V i 7 : @ # # o o ",
"  O . X X @ # $ % 7 5 u F L f.R.).AXAXAX(.iX^.@XoXA.a.f.Q.fX<X+XOX%XQ.b.x.x.x.V.V._.-X<XgX:X).-X5X2X,X[.`.O.I v u 5 : $ o # o # ",
"O . X . o # # @ : 1 5 d v E l.g.ZXMX5X4X:X!.Q.=Xs.9.0.5.z.#XJ.Z.b.P.P.d.F.F.t.y.2.2.e._.<X4X-X:X2X5X,X`.>X$.P v d 5 ; @ @ o @ o ",
"X . X X o @ & $ : > y h c @.x.g.BX5XBX[.!._.}.A.3.M.S.M.F.L.M.n.{ H.P.n.F.M.y.y.>.>._ 1.T.$X-XXX-X-X>XR.>X@.S Z u 5 ; $ @ @ @ @ ",
"@ o o o @ % % % % ; d g P [ v.;.gXBXXX`.<Xx.jXA.G.M.t.<.s.L.n.y.<.~ <.N.P.M.M.t.t.8.u.8.D.A.&X*X=X=X=X=X}.&.P v u 4 > ; ; $ @ o ",
"o o o @ # % : : % 4 a x J @.b.c.uXQ.l.w.*.A.C.k.( ^ ! ` d.n.0.<.n.N.<.<.<.M.G.S.8.:.2.2.8.9.G.%X|.oX.X X_.w.D b u 8 > > > ; @ o ",
"@ @ # o $ % ; < : 9 d M J 6.b.^.Q.Q.V.9./ V.) >._ ! ~ F.L.,.:.:.n.H.L.N.z.#XF.7.7.) ^ ! ! ) :.S.L.oXQ.x.l.&.A C u 8 > ; > ; @ @ ",
"@ o o # $ % : 2 , 9 g m E z.Q.fXc.gX#XG.e.C.>.! ! Y ( Z.P.5.P.L.H.H.%XwX%X|.s.7.D.7.) ^ ^ ) ) ,.A.oX|.j.l.$.N Z f 5 , > > ; $ X ",
"o o @ @ $ : : 1 7 y h m %.x.wXuXc.fXf.G.A.k.) 7.Z.oXtXK.wX%XyXyXwXb.~.wXwXwXv.|.%XJ.s.3.3.9.#.3.s.J.dXoX}.w.A S d y 4 > ; ; $ @ ",
"@ @ # # % : , 4 9 r n N f.A.dXOX+Xv.[ J.A.C.) B.*XtXkXwXhXkXvXvXpXeX7XeXeXvXpXyXdXhXrXA.#X&XoX%Xz.J.dXsX$Xg.P S h y 4 > > ; $ o ",
"@ @ @ # % : > 9 e j C U z.v.dXv.rXh.-.dX|.L.9.z.kXhXtXc.kXvXaXGXpX7X~.^.7X7X7X7XpXhXdXx.*XdXfXrX#XJ.dXrXXXl.T P h u 4 , > : $ @ ",
"@ @ @ $ ; > 4 5 t x F Q b.K.cXv.K.%.z.dXJ.C.&Xa.c.pXtXh.hXvXcXpXpX~.c.hXzX~.8XpXhXeX+Xf.rXdXdXsX%XC.=XsX<X X} L c u 6 > > ; $ @ ",
"@ @ % $ $ > 8 e a n F -.h.hXoX#X0.,.J.*XJ.K.*Xz.;.c.z.f.x.+X+X+X.Xj.^.fXuXeX;.Q.OX Xx.v.=XdX&X#XB.Z. X<XXX X@.L b d 5 3 > ; $ $ ",
"@ $ $ $ % > 5 u n n W h.z.hXK.Z.<.y.F.k.*Xz.|.+X~.~.Q.k.w.f.j.l.f..XuXuX^.uX@X Xx.h.g.x.x.x.V.s.0.B.x.@X;XXX6.I Z g 5 3 > : % $ ",
"@ $ $ % ; > 5 a n N  .b.~.dXz.k.>.S.t.{ oXv.f.dXkXhXjXhX<X&X X;.Q.zXlXcX0XaXGXfX<X}.|.}.k.C.A.9.7.F.K.@X=XXXw.Y M g e 4 > > : $ ",
"$ @ $ $ ; , e g m J -.b.wXtXK.Z.1.G.:.` f.eXf.@XpXaXGXHXlXjX$XQ.GXcXaXDXbXaXaXNXzXfXgX&X'.#XL.9.7.G. X@XfX.Xl.Y A c e 4 > ; ; ; ",
"@ $ $ ; : , e g J R b.h.hX+XK.C.k.A._ o.%.dXx.j.pXFXLXaXzX@XXXjXcXxXHXqXqXDXnXnX0XCXgX<X*X&XK.z.:.D.|.@XgXXXA.T N v r 4 > > : ; ",
"@ $ ; ; ; , r x J ] K.v.cXOXz.%.A.#.) >.{ }.x.&.aXLXLXDXHX9Xg.sXpXxXLXqXqXJXnXnXNXNXgXgXsX@XK.rX7.B. XOXfX.X'.X.L n r 3 > : ; ; ",
"@ $ ; ; < 9 r c J %.z.v.yXOXK.a.x.#.:.>.>.D.B.-.uXqXIXIXFX0Xf.w.@XkXcX/.0XNXNXAXJXNXzXiX@XQ.~.rXt.t.}.Q.fX.X}.o.L n u 4 > > ; ; ",
"@ $ $ ; ; < r c W k.d.d.h.b.P.%Xz.z.8.2.>.'.V.x.pXDXKXbXqXNXT.g.Q.cXlXW.0XDXJXNXNXBXCXpX/.@X+Xk.S.8.|.Q.fXXX$X4.L n u 4 > ; : : ",
"@ $ @ $ % , r x W N.H.N.d.I.p.P.OXz.G.G.B.#X_.Q.9XDXFXFXqXxXlX;.qXcXaX(.0XJXNXDXDXaXaXpX~.jXf.u.D.8.$X}.gX.X}.6.S M d 4 , 2 : % ",
"$ @ @ $ : 4 r c B P.L.n.n.N.p.I.I.z.a.s.&X&Xl.Q./.aXDXFX0XHXfXW.pXHX9X;.aXDXbXDXaXaXcXuX^.+X4.8.'.8.#X`.dX<X|.&.L C u 8 1 : : 2 ",
"$ $ $ $ : 4 e g B [ I.F.N.N.H.I.a.OXtXk.m.B.A._..XuXaXDXGXcX^.@XHXKX9X;.GXHXxXxXcXpXzXeXtXz.o.7.'.>.e.l.+XoXK.f.N n a 5 > : % % ",
"$ $ $ ; < 3 e d c m ] %.N.n.N.H.z.wXtXOX&Xw.#.V._.oX<XuXhXkX@X@XcXGX^.;.HXHXpXxXcXuXtXOX&X$.( u.u.^ ( z.oXz.b.-.J n a 5 : ; % % ",
"$ ; ; ; > 3 8 u a n J J ` ,.y.M.#.b.~.vXGX@X4.2.2.u.'.j.j.eXwXOXGXlX7X^.pXvXpXvXhXeXOX|.A.( ( G.7.' ,.#X%Xd.I.{ B B t 6 > $ $ @ ",
"; $ ; ; > 3 5 y z a m J ! ,.y.:.9.Q.pXFXqXcX<X8.>.2.D.&X@XeXfX+XdXfXuXvXvXvXpXyXpXOXJ.#X9._ 3.D.` t.Z.%XP.b.P.] B x t 6 > $ @ @ ",
"$ ; $ ; ; 4 8 u g b m ] 6.0.:.B.dXlX9XqXFXDXfX<Xu.>.8.'.rXQ.^.~.f.j.^.7XpXpXhXyXwXK.J.G.1._ e.k.3.B.L.L.B.Z.z.W B x t 6 > < @ @ ",
"$ $ $ ; ; 4 5 u g N E 6.' ' s.*XfXCXbXqXDXqXVXjX1XD.1.4.oX+XeX;. X!.7Xc.7X8XwXOXOXb.J.k.) _ A.4.5.m.%XyXZ.H.{ J B x t 6 > & X X ",
": @ % $ < > y d x #.%.] ] a.P.dXNXNXNX0X0XNXiXiXlXjXT.j..Xc.uXfXT.T.^.8Xc.b.b.b.v.a.%Xk.) _ A.%.k.F.*XL.N.Z.[ B x s t 3 ; $ @   ",
"@ % & # % 9 u x R %.{ ^ ,.P.yXeXiXmXNXiXNXCXMX0X(.(.;XfXjX^.j.fX=XT.c.c.8XwXyXb.b.a.G.8.:.3.V.%.k.L.*XG.Z.a.W n s t 6 3 ; & # o ",
"@ & o % $ 9 d W a.` ^ ,.I.yXhXpXiXmX0XMX0X0X9X/././.iXiXuXfX@XT.<X}.v.c.yXyXyXP.z.A.A.e.' 9.s.s.z.&X#XB.A.[ N x a e 6 > ; % @ o ",
"# # @ 2 < 3 j  .{ K ` F.%XyXpXpXgXiXMXNX0X).)./.iX!.W.9XuX!.fX.Xx._.T.z.yXP.P.H.A.#XD.V._ V.9.s.z.*XA.C.z.Y n d e 6 , > : % o X ",
"# @ @ % 7 6 G -.Y Y 4.#XrXdXpXuXgX1XBXMXiX(.iXiX!.fX.X_.sXx.Q.jXx.l.C.C.%XL.F.P.G.i.k.k.{ F.s.0.A.#Xk.A.%.J v r 5 > > ; $ $ o X ",
"@ & % $ 8 k .. .L T k.=XrXfXiXfX1X1XgX;XiXiX^.<X_.$X=Xk.}.&XQ.=XXXl.e.F.L.L.F.B.8.o.V.8.6.s.y.,.|._.l.C.] N g 6 > ; ; ; ; $ @ X ",
"X & $ > 5 F -.S P  .x.<X@X;X;X<X<X<X:X/.;XgX_.$X#X9.l. Xx.oXV._.&Xw.8.S.<.0.0.,.4.1.'.9.9.5.<.n.J.l.z.4.J m t 6 > $ $ $ ; $ @ X ",
"& @ @ 9 y G ..v Z &.XXXXR.-X1X!._._.!.;./.;Xe.u.8.V.9.|.f. X9.9.$Xk.B.L.>.! ` _ u.u.D.e.9.9.<.M.K.f.z.R J n t 5 < $ $ $ ; $ @ X "
};
