/* XPM */
static char *d050f529fdde40a1b9236f84888d09c7n6tVgkgLpNowM3vj[] = {
/* columns rows colors chars-per-pixel */
"63 64 251 2 ",
"   c #010102",
".  c #01010A",
"X  c #060508",
"o  c #020113",
"O  c #0A0214",
"+  c #02011B",
"@  c #0A031E",
"#  c #020124",
"$  c #0A0022",
"%  c #02022B",
"&  c #0B0629",
"*  c #010334",
"=  c #02043B",
"-  c #010A3C",
";  c #050637",
":  c #0C113B",
">  c #11112D",
",  c #010443",
"<  c #000C43",
"1  c #03054A",
"2  c #010B4C",
"3  c #0B0946",
"4  c #01124D",
"5  c #07194C",
"6  c #020D54",
"7  c #000E5A",
"8  c #080C53",
"9  c #011353",
"0  c #011A53",
"q  c #01145B",
"w  c #011A5A",
"e  c #0A1655",
"r  c #120F48",
"t  c #02225B",
"y  c #1C295E",
"u  c #011563",
"i  c #011B63",
"p  c #00166A",
"a  c #011C6B",
"s  c #0A1761",
"d  c #001D74",
"f  c #050D62",
"g  c #012264",
"h  c #01236B",
"j  c #052869",
"k  c #1B2B6B",
"l  c #05366D",
"z  c #012373",
"x  c #002A74",
"c  c #022B7A",
"v  c #072879",
"b  c #132B77",
"n  c #03337A",
"m  c #1A3578",
"M  c #203874",
"N  c #012C86",
"B  c #013382",
"V  c #033B8C",
"C  c #093888",
"Z  c #163885",
"A  c #023A96",
"S  c #0A3593",
"D  c #003FA3",
"F  c #203D89",
"G  c #064388",
"H  c #164688",
"J  c #084698",
"K  c #164896",
"L  c #055498",
"P  c #18579B",
"I  c #07538D",
"U  c #26458C",
"Y  c #234895",
"T  c #26579A",
"R  c #36549A",
"E  c #2A528D",
"W  c #08619D",
"Q  c #2A6196",
"!  c #366B9D",
"~  c #0546A4",
"^  c #0955A7",
"/  c #1757A6",
"(  c #1859B5",
")  c #154EA8",
"_  c #275AA6",
"`  c #3758AD",
"'  c #2855AE",
"]  c #0966A9",
"[  c #1668A6",
"{  c #1D68B8",
"}  c #1F76B6",
"|  c #1076AF",
" . c #2967AA",
".. c #3368AA",
"X. c #2566B4",
"o. c #3667B7",
"O. c #2677B7",
"+. c #3776BC",
"@. c #2F73AB",
"#. c #4A73B7",
"$. c #425CA2",
"%. c #266BC5",
"&. c #2C76C3",
"*. c #3878C7",
"=. c #356ECD",
"-. c #2863CD",
";. c #4679C9",
":. c #2986BA",
">. c #318EBB",
",. c #1B82BC",
"<. c #4989BA",
"1. c #2B89C7",
"2. c #3987C8",
"3. c #3995C9",
"4. c #3A88D5",
"5. c #3B9BD5",
"6. c #3797D8",
"7. c #2A93CD",
"8. c #38A3D7",
"9. c #3CAFD3",
"0. c #37A2E4",
"q. c #4887CB",
"w. c #5687CA",
"e. c #4597CA",
"r. c #5498CC",
"t. c #488CD7",
"y. c #5486D5",
"u. c #439CD3",
"i. c #4896D8",
"p. c #5798D7",
"a. c #6294D9",
"s. c #45A8CB",
"d. c #55A9CE",
"f. c #4CA4D4",
"g. c #45A4DA",
"h. c #4CABDA",
"j. c #46A7D8",
"k. c #58A8D7",
"l. c #4BB7DB",
"z. c #54B4DC",
"x. c #54BBDA",
"c. c #5DBCDA",
"v. c #5BB5D8",
"b. c #53B5CD",
"n. c #64A8D9",
"m. c #6CBCDA",
"M. c #67B8DA",
"N. c #76BCDB",
"B. c #6AA6D2",
"V. c #4B9AE5",
"C. c #579CE4",
"Z. c #5492E6",
"A. c #6599E5",
"S. c #6689E7",
"D. c #4BA4E2",
"F. c #48AAE6",
"G. c #53A3E4",
"H. c #5AA8E7",
"J. c #4BB4E2",
"K. c #49B8E6",
"L. c #52BCE3",
"P. c #58B7E7",
"I. c #56AAF3",
"U. c #59B7F2",
"Y. c #4BB7F5",
"T. c #66AAE7",
"R. c #6BBCE4",
"E. c #62BCEC",
"W. c #66B8E7",
"Q. c #75BBE7",
"!. c #68B9F8",
"~. c #71AEF6",
"^. c #58C5DA",
"/. c #50C2CD",
"(. c #63C4DD",
"). c #69C8DA",
"_. c #73C5DB",
"`. c #7CC6DC",
"'. c #74CBDC",
"]. c #7BCADC",
"[. c #77C6D4",
"{. c #74D1DE",
"}. c #59C5E7",
"|. c #57C8ED",
" X c #64C3E4",
".X c #6CC4E4",
"XX c #6CCBE3",
"oX c #67C7EA",
"OX c #7CC4E2",
"+X c #72CBE4",
"@X c #7BCBE3",
"#X c #7DCEEC",
"$X c #74C5E9",
"%X c #6AD2E6",
"&X c #7BD2E5",
"*X c #7DD3EB",
"=X c #75D4E8",
"-X c #6AC8F5",
";X c #78C6F8",
":X c #74D7F4",
">X c #83B4F4",
",X c #86CADA",
"<X c #93CDDA",
"1X c #8AD0DD",
"2X c #96D3DE",
"3X c #AAD4DE",
"4X c #84CDE3",
"5X c #83CEED",
"6X c #89CAE5",
"7X c #96CBE6",
"8X c #84D2E4",
"9X c #8BD2E4",
"0X c #84D3EC",
"qX c #8BD4EB",
"wX c #8EDAED",
"eX c #84D9E8",
"rX c #93D4E5",
"tX c #9AD4E5",
"yX c #9ADBE6",
"uX c #94D5EB",
"iX c #9CD5EA",
"pX c #93DBEB",
"aX c #9BDAEB",
"sX c #93DBE5",
"dX c #84C9F6",
"fX c #89D6F6",
"gX c #9CDBF2",
"hX c #95D9F6",
"jX c #A4D5E7",
"kX c #A3DAE6",
"lX c #A3D4E9",
"zX c #A3DBEB",
"xX c #ABDCEC",
"cX c #AAD8E6",
"vX c #B4DCEC",
"bX c #BBDDED",
"nX c #B1D9E9",
"mX c #A7DCF5",
"MX c #BBDEF2",
"NX c #B2DDF2",
"BX c #97E0F5",
"VX c #A8E1EC",
"CX c #BCE1EE",
"ZX c #A5E1F9",
"AX c #B4E2F1",
"SX c #BCE1F2",
"DX c #B4E2FC",
"FX c #C1DEEE",
"GX c #C1DFF2",
"HX c #C1E0EE",
"JX c #C2E1F1",
/* pixels */
"                    .   . . . . O @ % , 7 C 4.6.0.^ ^ ] u.e.P.u.( V d q e - & + + o o o . . . X . . X . . . . .   . .   .   . ",
"                        . . . . . + * = u C 6.6.0.7.j.5.E.U.P.1.=.K ` m < ; + + o o . . . o . . . . . .   .   . . . .   . . . ",
"                      . . . . o o @ % = q C V.6.Y.F.|.P.-X X}.3.Z.S ` #.4 % > + O o o o . . . o   .   . . . .     .   . . . . ",
"                        . . . . . O % * w H i.6.Y.K.L. XoXoX Xl.X.;.K Z 5 * % + o o . . . o . . . . . .   . . . . . . .   .   ",
"                      . . . . . . o % = 9 G i.5.8.K.|.|.}.-X^.9.%.y.Z w < * # o o o . o o . . . . . .   . .   . .   .   . . . ",
"                    .   . . . . . o # = 9 n q.5.K.K.^.}.}.^.s.>.*.S C b = % + & O o o . . o . . . . . . .   . . . . . . .   . ",
"                    .   . . . . o o # ; 2 x 2.6.K.9.K.K.}.9.>.:.P N z , - : + + o o o . . . . . . . . . . . .   .     .   .   ",
"                        . . X . o o # ; 2 g +.5.8.K.|.|.|.}.9.,.*.N u 2 < % # + O o . o . o . o . . .   .     . . . . . . . . ",
"                    .   . . . . o + & * 2 a K g.8.F.|.K.|.-Xl.8.t.Y Y 6 * : + @ o o . o o . . . X   . . . . . . .   . .     . ",
"                        . . . . . o # * 1 q K i.7.8.K.L.-XU.-XU.=.;.b b y # # o o . . . . . . . . . . . . . .   . . .   . . . ",
"                      . . . . . . + # % 1 7 C i.5.K.l.K.F.7.8.2.V ' d g 5 & + + o o o . o . o . . .   . . X . .   .   . . . . ",
"                        . . . . . o + % 3 7 x 2.6.8.3.8.:.1.} / S d m 8 * * + O . . . o . o . . . . . . . . . X . . . .   .   ",
"                    .   . . . . X X + # 3 6 h @.f.8.j.h.f.H.G.H.o.F F e < # & o o . o . o . . . X . . . .   . . . . .   .   . ",
"                        . . . . X   O & ; , w H p.3.U.h.~.>.O.2.) C a , 5 # + O . o . . o . . . . . X . . . . . .   . . . . . ",
"                      . . . .   X   O $ % , 0 l >.j.E.W.!.>.[ _ K c u 2 - % + @ O . o o . . . . . . . . . . . .   . . . . .   ",
"                    .     . . . X   O @ # = 4 0 H r.e.H.!.;XT.T.S.#.U R - % # o o . o . o o o o . . .     . . . .     .   . . ",
"                        . . . . . . o o + % - 0 i  .T.p.E.;X#XdX>Xw.#.$.y * + + o . o o o o + o . .   . . . X X X X     . . X ",
"                      . . . . . . . X o + # ; 2 7 v  .H.T.dXdXB.;.$.U M 5 % # + o o . o + + + o . . o . o . . X X X X   . . . ",
"                          . . . . . o o + # ; 3 s a S C.T.f.q.! M M t < % % # o o o o . o o o o o o o o o o o . . X . X . . . ",
"                        . . . . . O o o o # % , 6 a V 2.!.I l t e 3 - - % # & + o O O O + + + + + @ # + + + + o . . . . . . . ",
"                      . . . . . o o o o + + % = , p n O.!.[ G w 0 < < - * % % $ # @ # $ # # @ + & % # & # & # $ + o o . . . . ",
"                    .   . . . O o o o o o + # * , i z +.!.H.2.l g 9 2 4 , = = = ; ; * ; * * - * * * * * % % # # + + o o . . . ",
"                        . . . . o o o o . + # % , 9 i / H.I.C./ T n i w 9 q 7 8 8 8 8 4 4 9 4 4 2 < < < , ; % % % # + + o .   ",
"                    .   . . . . o o . . . . + # * 9 j I !.V.G.G.q. .C h a a p q a a a s g t g t t w t t 0 4 < - * % % + o .   ",
"                        . . . . o . . X X X o # * 4 t G U.g.!.I.H.i.O.K B x x c v Z Y T .... .T Q E Q #.E 5 t : < = % # > .   ",
"                    .   . . . X X . X X X X o + % < w l i.D.U.K.U.J.u.1.[ [ P T ;.w.p.A.T.M.T.n.k.d.B.B.<.Q l t 2 4 < % + + O ",
"                        . . . . . . X X X X o @ % < w j 2.K.0.|.K.}.K.l.f.e.d.B.Q.Q.dXdX6X;X$XR.R.W.Q.M.[.B.Q H H < , - : + o ",
"                      . . . . . . X X X X . O $ ; < w j } K.9.K./.}.|.%XXX$XfXhXhXZXZXZXgXhXqX5X.XR..Xm.#X@Xr.@.R g j , % # o ",
"                      . . . . o X o X X o o @ $ ; 1 i h [ Y.8.K.^.}.%X=X&XeXpXZXaXzXzXaXyXyXrX9X0X#X@X*X#X5X$X<.q.Z v , * & + ",
"                      .   . . . o o . o X o $ & , 8 i x } F.8.9.|.^.%X=XeXwXyXyXAXAXAXAXAXxXzXiXuX4X`.0X'.$XdXr.r.K n u 9 * + ",
"                        .   . . O O o o + o & ; 3 8 p c O.F.8.|.^.|.%X*XwXaXVXxXbXCXbXbXnXnXcXlXiX6X,X8X4X0XfX;X .+.#.a , % & ",
"                      . . . . o o o o o + > # ; 1 f d S 4.J.9.|.|.%X=X0XpXzXxXvXbXbXFXbXMXMXMXnXlX7X9X_.*X0X.X;Xi.;.K u 9 - * ",
"                        . . . . . . o + $ $ # , 6 f S D D.8././.^.%X&XsXyXcXAXbXMXSXMXMXSXbXvXnX3X<XqX$X*XXX*X:XT.X.;.Z 8 3 % ",
"                    . . . . o o o o o o @ $ % < p p D { I.j././.%X=XeXsXVXVXbXbXSXSXSXDXAXMXbXnX3X2XfXQ.XX).=X=XI.*.o.v 1 = * ",
"                    .   . . o . o + + o $ % = 9 p B ^ D.5.|.^.).{.=XsXBXVXvXCXbXJXSXSXSXSXMXMXbXnXtX5Xz.v.c.XXR.;Xt.S d 1 : : ",
"                    . . . . . . o @ + o & - 4 p z ) t.h.z.x.%X%X=XeXsXVXNXCXbXbXJXJXSXSXSXJXbXbXvX7X#Xu.3.s. Xv.-XZ.B b 8 * * ",
"                      . . . O O + $ + + * < q z ~ i.g.P./.%X}.:XeXsXaXVXAXbXbXFXHXHXHXJXJXHXFXbXvXiX$X3.:.2.d.k.I.t.S b 8 = # ",
"                    . . . . . @ $ & + % - 9 z J t.D.L.s.%X%X%XfXwXpXVXAXAXSXGXJXHXFXHXJXJXGXFXMXNXhXQ.3.:.} e.H.!.T.' p 8 r % ",
"              X   X X . . O o o $ # % - 4 i J &.F.K.s.^.^.=X:XfXyXVXVXAXDXMXGXGXFXFXHXHXHXJXFXMXmXgX;X5.:.] } G.C.I.*.a 8 = # ",
"            X X   X X . O o @ + $ # = 2 i z ( I.g.K.}.%X).:XfXwXyXyXxXVXNXNXMXMXCXbXbXHXHXJXMXMXiXhX;X5.2.^ / h.t.p._ a k < % ",
".             X X X X . o + + + & % 2 h p J I.3.l.^.^.).%XeXwXwXVXVXVXVXmXmXDXmXNXSXvXbXbXCXMXnXmXfXdX2.&.%.A *.V.i._ a 7 3 % ",
"    X         X   . O O + $ & % # = 6 p N t.4.J.x.^. X%X*XeXwXpXsXyXyXyXZXgXmXDXNXNXAXvXAXAXvXmXmXdX-X:.V.^ ~ { I.i.*.z 7 3 % ",
"          X   X . X o + + # % * * 0 w h *.t.j.x./.).XX*X0XwXpXyXsXyX9X8XhXhXhXZXmXVXxXxXAXAXNXmXmX5Xf.U.4.^ D ~ I.D.p.z q < * ",
"X   X       X   . o o + # % * = < t h o.V.i.L.c.).'.&X8XqXpXzXyXyX9X4X+XR.;X;XfXhXmXzXkXzXVXmXgXrXhXW.i.V.D D D I.i.C.C s 2 - ",
"            X X o . + # % = - < w t _ q.u.E.c.XX_.].1XsXiXaXkXsXsX@X'.v.>.h.-X-X#XqXuXyXyXaXgXaXaX,X*Xh.=.( ( D 4.5.H.K p 6 = ",
"X         X X X o o + % = ; , 6 x _ i.e.W.c.XX+X&X9XyX2XkXkXjXrX8X_.^.3.| 1.L.L.oX+X1X1XrXpXhXpX1XBX$Xk.Z.=.D D } i.C...d 6 ; ",
"X             X o o # % = = e j ' C.e.c.c.).+X&X9XyXkXkXcXcXjX7X@XXXz.7.,.| 7.9.v.m._.].,X9XqXqXsX[.0XM.~.-.-.~ ^ i.p.y.d q - ",
"            X X + # % - < 9 m R p.4.k.v.XX{.+XBXuXyXkX3XVXkXjXrX].&Xb.>.,.W | K.h.x.)._.@X&X0X0X1X8X_.$X!.%.~ ( ^ V.t.A.z i - ",
". .   X X X X . # = , 1 7 Z #.r.d.d.v._.&X9XpXaXzXzXcXzXzXcXtXrX1X,XN.f.O.] | 7.K.l.x.).XX*XdX5XqX9X@X%XP.H.^ %.( =.Z.Z.T i 6 ",
". .   X X X   o % * 1 u Y ..p.e.v.M.[.].9XyXiXlXxXxXxXxXzXzXyXtX<X,XN.M.i.%.] ] F.J.}.}.XX#X5X6XfX7X&X=X-X X[ ) =.D ~.y.w.2 e ",
". .     X X X + ; = m $.;.r.Q.n.OX].9XuXyXzXzXxXnXxXxXxXxXzXlXaXrX,XOXQ.H.u.O.L 6.j.z.v.m._.[.,X6X7X,X_.$XQ.;.A -.S =.~.A.E u ",
". .     X X o + * 4 R ;.w.a.W..XOX6XrXtXiXmXxXNXxXcXcXjXlXkXaXyXrX9X`.OXQ.H.e.O.3.f.v.M.m.`.,X<X>XiX9X].#XQ.T.` N D S ~.;.A.p ",
".         . + & < q R w.r.k.k.M.`.,X7X7X7XlXlXcXcXcXlXzXjXkXiXtXrX9XOXN.Q.m.k.f.f.k.M.M.N.,X,X<X3XlX7X6X6XN.>X;.S ' V *.q.y.Y ",
".       . . + % 4 j #.;.T.n..X$X4X7X7XjXlXlXlXlXlXlXlXlXzXiXyXrX9XqX4XOXm.m.R.W.n.k.T.Q.Q.,X,X<X3X>X<X6X7XN.>Xa.;.) B n A.+.` ",
"          o + - 9 U a.t.T.E.XX*X0XrXpXgXlXlXlXiXlXlXiXlXzXaXiXuXuXqXqX4X].[.Q.$X;XT.T.dXfXuX9XyXmX7XiXtXiX>X>XA.o.N N c t.;.S ",
"        . o # - w _ A.t.H.-X^.=X8XqXwXpXhXhXuXhX7XuXiXhXaXpXuXrXhXqX8X8X8X@XOXdX~.T.A.~.dXfX8XwX7XhXhX6X,XN.,X~.;.K K d N S.S ",
"      X . o % - i ;.*.C.h.L.(.XX+X&X&X&X*X*X5X5X4XfX5XqXqX4X4X8X4X5X,X].eX4XOXQ.~.;._ A.k.Q..XM..X_.[.[.[.N.n.p.#./ C c x Y S.",
"        X o & - g y.=.H.i.P.c.(.=XXX XXXXX.X.X.X$X#XOX@X@X].].'.@X`.].[.[._.M.n.w.P / / H.i.z.P.M.).).[.[._.Q.n.q._ C h u Z S.",
"      X X + % 5 g y.&.H.G.P. X X X^. XoXoX X X XE.M..XXX+X'._._.+XM.N.m.v.d.B.w._ C B B *.V.u.L.L.^.).)._._. XW.q.J h w 7 d ` ",
"      X . o % < j y.*.V.G.H.E.M.c.M.E.L.h.u.g.h.J.l.P.}. X(.(.).M.v.v.v.d.d.r. .C Z p z K H.i.g.J.x.(.).)..XR.H.p.P h i s 8 Z ",
"        X o # < h y.=.V.V.H.H.k.T.r.q.@.[ L ] } D.3.P.l.}.l.^./.z.b.z.h.d.k.q.H h h q 7 z  .C.e.l.z.c.)._..XE.P.C.P j q 8 1 s ",
"        . . # < g y.&.C.t.T.r.p.+._ G n n n V L D.1.K.j.K.^.l.l.x.z.L.F.i.i...x i 6 6 7 q h q.i.g.h.v.M..XoXE.I.G.P h , 1 1 8 ",
"X     X . . + - w o.=.4.*.4. ...v z d z c c V L I.1.U.j.|.9.}.l.L.l.K.F.6.{ C g 9 2 , e 2 w H 2.e.s.d.M.m.Q.E.I.h.K g 3 r r 3 ",
".     X X . + - 2 K *.^ X.G x h d p d d d d A ^ I.1.Y.J.K.^.^./.K.J.K.0.1.G a h 7 , 3 = < 4 q H e.f.d.B.M.R.P.P.2.C g 1 = * * "
};
