/* XPM */
static char *_63f50a6e1234aafd71fc8c9862459a9LEFuckX031fftd4x[] = {
/* columns rows colors chars-per-pixel */
"64 64 256 2 ",
"   c #020201",
".  c #0A0001",
"X  c #010A01",
"o  c #0A0A02",
"O  c #02010B",
"+  c #0B000B",
"@  c #030A0A",
"#  c #0C0D0D",
"$  c #130101",
"%  c #1B0101",
"&  c #13010A",
"*  c #170707",
"=  c #001201",
"-  c #001B00",
";  c #061408",
":  c #151503",
">  c #010112",
",  c #0B0113",
"<  c #01011C",
"1  c #0C011B",
"2  c #040A18",
"3  c #130214",
"4  c #14021C",
"5  c #1A0319",
"6  c #091713",
"7  c #240001",
"8  c #2B0100",
"9  c #250609",
"0  c #380104",
"q  c #380114",
"w  c #2D0F10",
"e  c #002400",
"r  c #002A00",
"t  c #003501",
"y  c #08300F",
"u  c #2E2E00",
"i  c #0A0226",
"p  c #140224",
"a  c #1B0124",
"s  c #15022A",
"d  c #1B012B",
"f  c #190C28",
"g  c #1C003B",
"h  c #180135",
"j  c #0B112A",
"k  c #24012D",
"l  c #280328",
"z  c #22003C",
"x  c #280236",
"c  c #2C0B37",
"v  c #092E3A",
"b  c #440101",
"n  c #4A0001",
"m  c #49070B",
"M  c #570104",
"N  c #4F0C0F",
"B  c #680203",
"V  c #7A0604",
"C  c #6A1902",
"Z  c #700C15",
"A  c #4D3100",
"S  c #723507",
"D  c #501026",
"F  c #660728",
"G  c #7D1820",
"H  c #742B25",
"J  c #024902",
"K  c #035B00",
"L  c #064D13",
"P  c #066B0A",
"I  c #28611C",
"U  c #544700",
"Y  c #5A540C",
"T  c #725314",
"R  c #516A00",
"E  c #6F6B0C",
"W  c #7D4C27",
"Q  c #190144",
"!  c #160159",
"~  c #13104E",
"^  c #270147",
"/  c #33044A",
"(  c #280457",
")  c #370357",
"_  c #2D1055",
"`  c #212B5E",
"'  c #160C6D",
"]  c #280465",
"[  c #360367",
"{  c #280778",
"}  c #371579",
"|  c #2F106E",
" . c #1A227A",
".. c #03257E",
"X. c #302A6F",
"o. c #450577",
"O. c #44096D",
"+. c #41225F",
"@. c #014952",
"#. c #00634D",
"$. c #2F7174",
"%. c #1C5C5B",
"&. c #880503",
"*. c #980401",
"=. c #93150C",
"-. c #B60700",
";. c #B81905",
":. c #A90F09",
">. c #9A2D03",
",. c #B12E09",
"<. c #91102D",
"1. c #B1152E",
"2. c #A12526",
"3. c #C80801",
"4. c #D60805",
"5. c #C71602",
"6. c #D91803",
"7. c #D00B17",
"8. c #E61904",
"9. c #EA0E08",
"0. c #C72900",
"q. c #CE3008",
"w. c #E73009",
"e. c #D5292A",
"r. c #8E7208",
"t. c #BB6500",
"y. c #A57A1B",
"u. c #A26621",
"i. c #D64902",
"p. c #DA5500",
"a. c #CC5004",
"s. c #F24F08",
"d. c #CF7005",
"f. c #F97816",
"g. c #EF7005",
"h. c #F15626",
"j. c #FC762C",
"k. c #F56348",
"l. c #AB2A49",
"z. c #0B8713",
"x. c #2D8D34",
"c. c #28A32C",
"v. c #4C8B00",
"b. c #6DB01B",
"n. c #1EE524",
"m. c #59DC22",
"M. c #0DB54F",
"N. c #32936A",
"B. c #0FAE79",
"V. c #31A973",
"C. c #24975E",
"Z. c #4AA664",
"A. c #32CC58",
"S. c #16ED4F",
"D. c #16D172",
"F. c #31CD6B",
"G. c #0FEB70",
"H. c #36E968",
"J. c #26E24A",
"K. c #54C856",
"L. c #48CE6F",
"P. c #74D764",
"I. c #63E153",
"U. c #BCAC32",
"Y. c #A19B1F",
"T. c #D38907",
"R. c #F78905",
"E. c #E59505",
"W. c #F89706",
"Q. c #F28E12",
"!. c #F8AD10",
"~. c #FB8B36",
"^. c #FAB232",
"/. c #D89B2B",
"(. c #A3DF2C",
"). c #F8D20A",
"_. c #FCE913",
"`. c #FCD637",
"'. c #FCCD2C",
"]. c #FAF033",
"[. c #D8DE34",
"{. c #B8A546",
"}. c #FD9149",
"|. c #D9B249",
" X c #FFBA5E",
".X c #FCAD4A",
"XX c #C69948",
"oX c #A6DE51",
"OX c #FECA47",
"+X c #FDD848",
"@X c #FFD957",
"#X c #F2C853",
"$X c #FCEC49",
"%X c #FEF150",
"&X c #FDD36A",
"*X c #FFEA6A",
"=X c #FEF966",
"-X c #FCEE75",
";X c #DAE14C",
":X c #340E8D",
">X c #17318E",
",X c #312F90",
"<X c #3519B1",
"1X c #2C35AB",
"2X c #1420A3",
"3X c #4C0F91",
"4X c #4910AE",
"5X c #4D289D",
"6X c #195097",
"7X c #2E5090",
"8X c #106B92",
"9X c #0F56AD",
"0X c #2E4FAC",
"qX c #136DA7",
"wX c #3273AB",
"eX c #2B6E89",
"rX c #4C7698",
"tX c #4851AA",
"yX c #4C5B9E",
"uX c #3832CB",
"iX c #1323CA",
"pX c #4D2BCB",
"aX c #5032E8",
"sX c #125BCF",
"dX c #2D54CF",
"fX c #0E6CCF",
"gX c #326DCD",
"hX c #316DEE",
"jX c #1661EC",
"kX c #475DDE",
"lX c #139190",
"zX c #2A8D93",
"xX c #0EA589",
"cX c #28B28F",
"vX c #2A8DAB",
"bX c #30B1B4",
"nX c #109AB4",
"mX c #4DB393",
"MX c #4AB1AC",
"NX c #5791A1",
"BX c #13D08A",
"VX c #30CD89",
"CX c #1BDAAF",
"ZX c #38C8B5",
"AX c #3BE882",
"SX c #4BD291",
"DX c #46E88B",
"FX c #4BCAAD",
"GX c #60DB96",
"HX c #2B90D0",
"JX c #36B8C8",
"KX c #16A0D7",
"LX c #48ADCF",
"PX c #5293C6",
"IX c #34C3D0",
"UX c #FFE483",
/* pixels */
". . . $ &   @ @ X X               X                                                           & D q   @ % n &.-.4.8.3.p.E.T.|.|.",
". . . . .     X X     . .                   .   .                                             % F F * $ 0 B *.4.8.3.g.W.E.+X#XA ",
"        . .         . . .                         .                                           $ Z <.n M &.1.7.7.w.g.R.W.@XU.8 8 ",
"X   X X   .       . $ $         X                                                             % B 2.&.&.5.6.9.w.f.Q.^.=Xy.% * $ ",
"    @         + + + + + O         X                                                           % M e.;.5.6.8.w.j.Q.'.=Xr.. : .   ",
"O O         + & & , 3 + @     X                                                               % M e.h.5.8.s.f.^.+X=XE . X     O ",
"+ +     X   + & , + + > O @       X                                                           % N a.~.i.s.W.!._.=Xb.: . o   @ 2 ",
"% $ .     X & * + + + O O X                                                                   $ 0 >. XW.W.!._.%XY.. . o . @ @ > ",
"0 8 $   X X * * .   $ .     . . .                                                             $ 0 u.!.).)._.].(.    .   .   O > ",
"Z M 8 % . $ * %   . % $   X $ $ +     .                                                       $ 0 S !._._.].;Xu     O         O ",
"1.:.B m 0 q q 5 . . 8 7     + &     . .                                                       $ 8 C E._._.%XE   .     O . . . . ",
"7.7.:.<.F D F m % 7 N N $   5 5 . . . . .     .                                               $ 0 C T._.].Y.. : .     O   . . $ ",
"9.9.7.1.<.F <.Z 0 b C G m 7 l l & $ & * .   . .                                               . 8 C T.+X#X: $ . . .   >   . . . ",
"9.9.9.7.1.V l.<.V V ,.=.V Z F q * $ * 5 . . .                                               . . 7 C T.+XY.. :       O O   .     ",
"s.w.9.9.=.B e.e.,.i.s.s.3.;.<.n % * w w & . .                                                 . % A d.@XE :   ;     > O       @ ",
"W.R.s.w.>.C h.h.j..X Xj.q.q.2.M 9 w D D q % . . .         O                       .   .     O . % 0 t.*XT   =   O > +         O ",
"].).!.W.T.r.E.^.&X.X/.#X^.j.l.N w D l.<.Z n 7 . .   X @ > > O   O O O   O . . . . . . . + O O   . u d.OXT .     O   . .         ",
"Y.`.%X`.`.E.].'.t.>.C N r.XXW m D F 1.7.1.V b 8 % .   @ > > . . O O     . .     O . . . .   O O . 0 d.OXW . ;   O   . .         ",
": Y Y.|.$X].].'.d.,.:.V b 0 : : w H k.w.7.;.&.M b 8 $   @   $ .       X     X O O               & N t.OXT . ; O @     .   O     ",
"+ . & A r.Y.U.OX X}.i.q.=.0 . 2 # 0 2.q.w.5.:.2.D N w +     $ $ . . .   X       @   X X       & 9 B t.OXA       > O . . .       ",
"& . . . . % $ : A y.}.h.;.<.D 4 , * N M V =.2.Z N N : o X   . . . + + . .     X X X   .   .   $ q G d.@Xu X X X > O   . .     O ",
". . X . + + + # = . S }.}.;.B 0 a > . 7 m n b 0 8 % &   @         + + + +               . .   $ 0 <.d.OX: @   @ > O   .       O ",
"        & O O     : % T .Xh.,.V % 1 $ 0 M B M b 7 $ . .     X       O O O                     $ B >./.XXo X     > O     . .   O ",
"        O O #   @   . 9 y.}.0.:.M 9 7 N &.*.&.B 0 8 7 3 O O   X X               . .         . 7 V >..XU.X X     > O     .       ",
"X X             .   : . S #Xg.0.*.B B V -.-.3.-.&.M N l 4 O   X   o   @ X   # O + + > , O + * n &.t.*XY o       O   X   . . .   ",
"        X     . . .     * XX.Xi.6.:.*.*.e.9.4.6.1.&.n q 5 , 6 . % $ .   . $ 7 0 m 0 % & & 7 0 n ,.g.&Xu   @ @                   ",
"                O   @   . U #Xf.6.4.-.7.4.4.w.h.q.,.=.=.M 8 $ % m N q % 8 M &.;.-.*.B n 0 0 B >.t.OX{.X . ,               .     ",
"            > >     @   5 $ y..Xq.8.4.4.9.h.~.a.d..X}.,.>.V 0 N V V M B V ,.q.w.s.s.,.=.&.=.>.,.d.*XU X + +   @                 ",
"X     + .   O + . .     < O u  Xf.5.5.5.s.j.p.d.'.+X^.T.p.=.=.*.q.;.*.-.;.i.Q.!.W.R.p.q.0.0.i.Q.@X|.: X + +   o   .             ",
"    O       O   $ .     < > @ y.&Xp.,.0.i.g.T.&X|.U [.+XR.p.;.0.j.g.q.0.p.~.@X+X%X@X^.Q.f.g.f..X-XA =   . &                 O O ",
"* +   X     . . .   :   2 +   : #X+XR.g.R.^.-X{.u X : -X^.R.R.Q.'.!.T.T.'.=X{.E U {.-X@X^.+XUXUXY.  = O & $ X   .           O > ",
"& . @ X X X . .   o   O     - = y [.%X].%X#Xr.@ = e r R =X!.E.`.$X'._.).$XU.* @ X - R oX=X;XY.Y >   O > % $ X     .     X     O ",
"      X     . .       @   X e K v.(.(.(.R - = = r b.oXv.Y.%X$X%XY.(.].[.oXu o X 6 P v.m.(.m.J X o . , + . . @ O .       X @ . . ",
"X   @           +   @   X : x.K.P.P.P.P.x.L t L P.I.K.P.v.v.b.I b.(.(.m.r = X - x.K.I.n.n.m.I.K X   > . o   O i   . .         . ",
"  .       . . O     ; X - #.GXmXzXlXzXmXSXF.F.AXH.L.vXlXC.r 6 R GXA.n.I.z.t t x.cXSXM.S.n.n.J.m.- X ; X   = 2 < O   . . .     X ",
". . . .     O O O @ @ : J L.MX8X9X9X9X6XN.V.B.B.M.bXfXfXlXL x.K.F.BXV.A.L.Z.N.FXZXB.D.G.S.S.H.H.P - X = X X j < >     . . . @ > ",
". . . . O O + + O O   e P SX8X0X>X<X3X5X5XtXyX6X8XHXjXjXvXzXN.cXB.ZXHXqXvXPXLXLXnXxXG.G.BXBXxXVXF.P = 2 = X , p >       . . O < ",
". . . .   O O O @   @ - A.VXqXuX{ [ O.O.3X3X} ' 9XhXjXjX8Xy cXlXvXvXsX2X>X0XdX9XKXKXCXBXZXlX8XMXDXF.y X =   % 5 +   X X   . + 1 ",
"          @ O O   X @ - F.cX0X2X! h a s ^ _ ( ! 2XkXiXsX@.#.xXlXHX6X ._ ] _  ...9XKXIXKXqX8X0X6XcXDXM.r X % % $ .   X       . + ",
"      X X X O .   @   L VXN.1X:XQ i 2 1 p g ^ ( :XpXiXdXeX$.vXwX>X>X( c c ^ Q ! >XfXjX9X0X,X:X>XvXVXH.z.- . % $ .       X     . ",
"  X     X X   .   o   I SXB.5X] i < i i h z / ) [ :XiXhXkXNX7X>X' ] ^ x l l z ( ( } 5X,X3XO._ _ >XvXBXJ.P e X .   @ O       X   ",
"O O     X X   . . X X %.bX8X,X) p > 1 p h z ^ / / [ <XpX0XX.| ] ( ^ ^ x a a x ) / ) ) O.o.[ / Q :X>XlXVXF.K = :   O > @         ",
"> O . . X   . . . X : %.FX8XX.^ 4 + + , i h h x x ) 3X:X{ ] g x x x k k 4 s ^ ) ) +.) O.o.[ _ ^ +.} 1XvXSXF.t ; X   X X O + @ O ",
"+ O + .         o = r N.bX8X` l , O . O i s f a l x ^ [ [ ) x l l l k k d ^ ] :XO.+.X.+.X.' ] _ ) ( :X0XcXFXM.t e = X X > 1 O   ",
"O   $ . .       X X e N.LX8X` p > > < < i p 5 5 f s h g ( ^ g i d s p c / [ 4X<XyXNXmXmXZ.7X,X{ _ ^ ) | >XvXAXJ.K t e - @ @     ",
"  . . .   O     X X r V.JX8X` < > O < i i 3 3 4 , p p f g g i i s s f c ) o.4X4XtXvXmXFXGXNXtX{ Q c l _ >X%.M.S.J.A.z.J r = - e ",
"    . . O > O   @ X y V.MX6X` i   . > + + . + , , 5 5 l g h a l k k f c c ) o.:X:X,XwXPXmXMXyX,X~ c ; 6 v #.A.S.n.S.H.H.A.c.J r ",
"X X . . O O @ O O = J Z.MXqXX.p . . . .     @ > 3 9 5 5 g g a 5 l k d f c / ) ] ] :X:X>X7XrXtX} v v Z.mXzXMXVXF.D.D.cXD.VXL.F.C.",
"> O . .   X   O X = K A.bXqX| l O               + + 3 4 s s d a k d d s d k h z ^ ( { | :X,X:X' ~ v eXMXbXIXJXnXvXwX6XgXHXIXZXCX",
"> O . .     O O   = K L.bXqX+.5 +               . O + 4 4 p s s d d d a a a a d h g ^ ] | 3X:X] i i 6XwXHXHXHX0X1X2X:XdXhXHXKXKX",
"    .     @ > O   = P A.bXqXX.d +                   + , 4 4 p d s d s a a a a a d h g Q ( o.} ( 4 4 X.7X0XtX,XX.] ( ! :XpXdXdXhX",
"  .     O > @ O . = c.F.JXqXX.h >               .   O + , 1 1 p s d d a a 5 a a a s f h Q _ ( h 5 * c / X.} ^ z x / ^ o.4XpXpXaX",
".       > O   X + e F.B.IXqX,Xg ,                     O + , 1 1 p s p 4 f 5 5 5 5 4 p p p s s ,     , 1 s a 3 5 5 l h ) } 3X4X4X",
". .     > O X X @ L FXxXKXsX,Xg <       .       .       O O , , 4 4 4 4 4 4 4 4 4 3 5 3 , , + O   O O   & $ $ * . 3 1 ^ ( [ [ :X",
"O O     O     = e N.FXqXsXdX:Xg ,   .                   . O O + , , 3 , 3 , , 3 3 + , # +   .     @               3 , s d k x k ",
"> O   . O   X = J MXPX9XiXaX5XQ ,                           O   . + + + + , + , , O   o   .     O O     X X X     3 > 4 3 3 * * ",
"  . . . + @   : xXbXwX:X<XpX3X! ,                                 .   + + + + O O O               + O O @ > > > > > + . . . . . ",
"  6 . . O @ 6 @.LXqX..{ :X3X:X( < .   .                         .     .   O + O O   O               O > < < i < > @ . . .       ",
"X X . + 2 < @.LXwX,X! ~ ) O.3X( <                               .   .     O O O O O O O   O           O > > < > >   X X     > > ",
"  X     < %.LX8X' ] ^ h p / O.( ,                                             O O O   O O         .   .   O > O @   X X X   > < ",
"@ ; = = $.NX,X>X_ i , 1 p h / g +                                                   O     O O     . . . . $ . . . X X X   . O + ",
"< 2 v NXNX` | ( h O . . > p k f                                                                         . . . . + .     X   O O ",
"v eXPXyXc c 5 , >   . .   + 4 5                                                         .       O @         O > > O   X X     @ ",
"lXzX,X^ z 5 $ . & . .       O 6                 O                 O                     .       O >       O < < < +       X   O "
};
