/* XPM */
static char *a34c6cfc35224aeefb1b8aac992f2d18SmnKzjwE0lLvrnO4[] = {
/* columns rows colors chars-per-pixel */
"64 64 248 2 ",
"   c #050503",
".  c #090501",
"X  c #040902",
"o  c #0A0905",
"O  c #03040B",
"+  c #09030A",
"@  c #030A0B",
"#  c #0B0B0A",
"$  c #110302",
"%  c #110B0A",
"&  c #08110A",
"*  c #11120E",
"=  c #010313",
"-  c #080311",
";  c #020A14",
":  c #0A0B13",
">  c #01031B",
",  c #0B0319",
"<  c #030C1B",
"1  c #0B0A1C",
"2  c #0D1114",
"3  c #08121A",
"4  c #161614",
"5  c #1D0C12",
"6  c #020323",
"7  c #010A22",
"8  c #01042C",
"9  c #020C2A",
"0  c #0B082C",
"q  c #03142C",
"w  c #0A1427",
"e  c #111C28",
"r  c #010432",
"t  c #010C33",
"y  c #0B0C31",
"u  c #00043E",
"i  c #000B3A",
"p  c #0B0F3D",
"a  c #081839",
"s  c #131B34",
"d  c #161537",
"f  c #130D32",
"g  c #0C2537",
"h  c #16243A",
"j  c #17212D",
"k  c #292927",
"l  c #292F36",
"z  c #41413F",
"x  c #010A45",
"c  c #091B4A",
"v  c #141A49",
"b  c #010756",
"n  c #0F1D52",
"m  c #0A1956",
"M  c #141D57",
"N  c #072247",
"B  c #1B2344",
"V  c #182848",
"C  c #082658",
"Z  c #1D2D53",
"A  c #1A2657",
"S  c #1A3355",
"D  c #033357",
"F  c #242A49",
"G  c #253447",
"H  c #252A5A",
"J  c #212557",
"K  c #263858",
"L  c #303E5A",
"P  c #030B63",
"I  c #071565",
"U  c #0D2E65",
"Y  c #1B2D63",
"T  c #1B296B",
"R  c #1B356B",
"E  c #1A3669",
"W  c #1C2C73",
"Q  c #162878",
"!  c #1A3675",
"~  c #08296E",
"^  c #272966",
"/  c #23336C",
"(  c #263B6D",
")  c #2A3868",
"_  c #363D6F",
"`  c #232E7A",
"'  c #253A70",
"]  c #2A327A",
"[  c #243E7C",
"{  c #2B3D7C",
"}  c #283673",
"|  c #373B7A",
" . c #344159",
".. c #2B465C",
"X. c #1A416B",
"o. c #1F4572",
"O. c #2C4368",
"+. c #37476A",
"@. c #2B4274",
"#. c #2C437C",
"$. c #274779",
"%. c #3C4C7C",
"&. c #354675",
"*. c #38567B",
"=. c #39586C",
"-. c #484846",
";. c #535351",
":. c #5E5E5C",
">. c #51514F",
",. c #404A68",
"<. c #48587A",
"1. c #485672",
"2. c #656563",
"3. c #0E2788",
"4. c #18398C",
"5. c #172B96",
"6. c #1A3A96",
"7. c #19399B",
"8. c #0C2E90",
"9. c #253D84",
"0. c #293C89",
"q. c #363B87",
"w. c #273B97",
"e. c #303F94",
"r. c #1825A1",
"t. c #1B38AA",
"y. c #2439A6",
"u. c #2837BA",
"i. c #343DB2",
"p. c #2B4281",
"a. c #2B438B",
"s. c #2D4B8B",
"d. c #284687",
"f. c #3B4C84",
"g. c #344D8E",
"h. c #394C8C",
"j. c #354887",
"k. c #2D5385",
"l. c #3A5586",
"z. c #2B4C93",
"x. c #2A4799",
"c. c #334C92",
"v. c #344A9B",
"b. c #345392",
"n. c #3B5497",
"m. c #3A5C9C",
"M. c #385698",
"N. c #295599",
"B. c #3C6492",
"V. c #3C6498",
"C. c #2F648E",
"Z. c #1C41AB",
"A. c #2443A3",
"S. c #2D4CAB",
"D. c #2647A7",
"F. c #344BA7",
"G. c #2D52A9",
"H. c #3D59A4",
"J. c #3957A7",
"K. c #2748B6",
"L. c #354CB3",
"P. c #2C55B5",
"I. c #3758B8",
"U. c #3D64AB",
"Y. c #3861A8",
"T. c #3869B7",
"R. c #336DAD",
"E. c #194B92",
"W. c #495A85",
"Q. c #525C84",
"!. c #445897",
"~. c #496488",
"^. c #556888",
"/. c #4B6C9E",
"(. c #46679B",
"). c #55679A",
"_. c #4A7199",
"`. c #587498",
"'. c #5F708E",
"]. c #627398",
"[. c #455DA5",
"{. c #4558B8",
"}. c #4B54BE",
"|. c #4263A2",
" X c #466BA3",
".X c #446AAB",
"XX c #4A6CAC",
"oX c #4767A9",
"OX c #516BA5",
"+X c #5366A3",
"@X c #4C72A6",
"#X c #4C73AB",
"$X c #5173A5",
"%X c #5D73A2",
"&X c #5374AB",
"*X c #597BA8",
"=X c #446BB2",
"-X c #4A6DB6",
";X c #4766B6",
":X c #576DBC",
">X c #4B72B4",
",X c #4E79B6",
"<X c #4B71BC",
"1X c #4774B8",
"2X c #5676B6",
"3X c #6478A7",
"4X c #6C7CB8",
"5X c #3957C8",
"6X c #304EC8",
"7X c #3766CA",
"8X c #386DD2",
"9X c #3B77D5",
"0X c #435DCC",
"qX c #464DC1",
"wX c #4868C7",
"eX c #4979C5",
"rX c #577BC1",
"tX c #4669D4",
"yX c #5572C8",
"uX c #6174C3",
"iX c #5679E7",
"pX c #506CE7",
"aX c #3E8BBF",
"sX c #53809F",
"dX c #4788BC",
"fX c #5788BA",
"gX c #4F81AA",
"hX c #6E85AC",
"jX c #6782AA",
"kX c #7186A9",
"lX c #6586B7",
"zX c #718CB5",
"xX c #6291BB",
"cX c #3A8AC7",
"vX c #3E87D7",
"bX c #3D91CF",
"nX c #4B86C2",
"mX c #4B83CB",
"MX c #4A8BCC",
"NX c #4586C6",
"BX c #5488C4",
"VX c #4891C8",
"CX c #4C82D4",
"ZX c #498CD3",
"AX c #5388D5",
"SX c #5396D3",
"DX c #6E8AC1",
"FX c #959593",
/* pixels */
"                                        .                       X X X X   O O O - O + +       o . $ $ .   X & ; *._.2X>X=X=X XV.",
"          o                       o                   . . o     X X   X   O O + + + O +       o . 5 . . &   @ g _.@X>X>X.Xm.M.V.",
"                      o           O       o               X     X X X       + + +               . . % #   ; h ^.*X$X#X.X(.m.m.|.",
"    .       .       . O   o .                       o                       +   + +   .   .       + O < < g `.jX`.$X@Xm.M.Y.[.m.",
"          .       .                                                     . . . . . . . .   X       ; < > S `.+X&XOX@X(.l.b.n.n.g.",
"          O         O                                                   o . . . . . .     O   O O @ ; K ).&X2XXX2X|.M.m.m.h.a.h.",
"        o                                   O o O   . o       o O     . . . .   o o     O O O = q 3 O.jX*X-X-XrX-Xm.h.!.!.j.f.f.",
"o                     o           o .       .                 O   O   . . o       X     @ = > < V _.xXsX&X2X2X;X{.[.v.j.q.W.&.) ",
".               o     .     o                           .         + # o         X     O < > w =.jXlXfX&X@X#X=XH.J.v.0.0.f.,.F 6 ",
"O       o     .                                                 + + . .   o       @ < < > K '.%X&X,X&X#X@X#X.XJ.x.x.e.0.^ v w ; ",
"o                                     .                   o     .             # O < ; q ~.hX%X*X1X1X#X#X#X Xm.b.w.e.q.] v > O O ",
"                          O           o   .                       .   + O   O ; = 7 K `.zXlX$X.X<X1X,X,X#XV.b.a.0.0.] ^ p =   o ",
"                          o               .     .                 . #     < ; = q +.hXzX,X X>XrX<XeX<X>X XM.d.[ { { ^ v 6 -     ",
"                  o .   .                       o                       O O > q <.zXlX(.#XU.Y.mX=X;X=XU.J.s.p.$.' _ F y =       ",
"o         o O                                   o     O       . o     # O O s <.zX$X&XU.E.E.R.eXT.;XJ.N.x.a.9.} / V y < O   . . ",
"  .                             o X   . O O         X       . . . o   O ; Z ^.hX`.).j.d.N.N.R.eX=XoXJ.x.0.0.{ Y L s O   O # .   ",
"                                X     . O O + O   o   o .   . # o   ; q *.*X*XOX).&.) / U k.1X1X>Xz.z.a.0.W } H s 3     X   .   ",
"        O o             O     X   X X O O - O + .     o o   .     2 s ^.lX&XV.s.{ ( _ n !.U.,XT.(.a.9.T ` | ) f w +     X o     ",
"                  o .   o       X X     O O + . o . o       - = O s '.jX/. XU o.R Y ( {  XfXU.J.c./ Y Y ) H F 6 +       X       ",
"              .                 X       + + . . .   o     O O < B Q.].l.k.E $.U $.C #.OXoX-XG.N.T m M v d 6 > = +             O ",
"    o                             X   + . . . . o .     : ; = a ~.OXf.E *.E B.D E C U.#X-Xz.x.6.m A H 0 , O +   + o @ o   @   @ ",
"          o                       O     . . . .   .     1 = 9 Q.3Xg.R @.l.*.$.o.D N.,XU.U.6.4.Q ^ ^ J 6 , + o o . . O     O @ X ",
"                              @ @ O     o . . . . .   O > 7 +.3Xl.{ C { l.( *.$.o.,X#XT.N.0.0.! ] J p > :       .   O     @ X X ",
"  O   .             o           @ O   . . . . .     O = > K ).<.&.C @.8 E W.k.k.J..X>XU.z.! +X} ` ] v > O @ X   X   O O   @     ",
"      o                       o @ O       .     o   < > 6 ].Q.&.S 6 a N &.W.{ W [.rXU.b.! [ H %.h.W n a ;   X     . O +         ",
"  .             .   o O     . O   @         X o o ; O > 1.^.+.a g > 9 a 1.).{ 0.[.J.x.4.R Y N H [.g.Y 9 ; @ &         +       X ",
"                                #       * & O O ; > > s <. .+.7 < O = 7 <.+Xj.n.{.[.H.g.Y N 8 i q.g.%.S < = @   @     .         ",
"          o                     O     @     O 3 > 9 F ^.,.h h =     O > ,.%Xh.j.g.q.[.+X( n 8 i c Y W.W.Z = O :       o         ",
"                        o     o .   o     ; ; > a <.Q.Q.F e O O .   @ > H %X!.! ! M h.).f.E c i i t Z <.,.s O O . .     X o   O ",
"      o       .       .         .     o @ = 7 B 3X].^.V 8 < O o . . ; 7 c /.(.R Y x n %.).!.a.C t > 7 B F d , +   o   X     O = ",
"                .             . . . o @ O ; ..kX3X#.) c 7 > *   $ . = 7 a B.@X$.N r 8 A !.!.:Xg.9 = = > > , , + . .   X X O @ ; ",
"+     .     X   X         O       o o O g ^.kX].<.H 9 > < O   o . $ O < q l./.~.N p 6 t M c h.} e + O - - = - O . .   X   O O = ",
"+ + + . . o .             + O   X   = O.3XhX^.1.G 3 O ; 1 O O O .   O ; > V '.^. .s 6 > 7 ; ; w O     O O + O     . X   o     O ",
"  O       o o .   .   . - : ; @ @ g ~.lXDXOX=...j : O + O -   . .     2 O >  .1.h w = = =     X .         . X .     O           ",
"; ; @ O   . + . . . o +     @ @ .._.lXrXI.M.! c ; ; , +   . o .       : O O 4 G w ; O O O                             .         ",
"@ @ O     . . . % + O O O < G =.sXfXeXP.S.G.Q x 8 6 > , + . o o o o     O @ @ @ = @ O     o     .                       .       ",
"  X X o X   o # + = ; q S *.sXxX,XeXI.D.K.P.D.! ` n 8 > - % o   . % X   @ * @     @ @       .                         o o       ",
"o . o .     O ; < a X.B.gXMXVX,X<XwXK.Z.Z.I.wX-X[.!.] p > O X X   o o   X X   X X X X       .         .       o                 ",
"+ + + = < q N D C.R.NXSXZX9X8X8XL.L.D.y.K.I.I.J.}.uX:X!.c 7 ; @     o X   X   &   X         . .           O       O             ",
"> 6 9 V ..C.dXSXVXbXvXvX9X7X7XK.y.y.w.5.7.D.L.F.y.L.uX:Xn.C 9 > ;         o     X       o o +             .       o             ",
"' W.$XfXfXVXaXaXcXbXcXvXT.P.T.t.u.r.t.7.3.3.6.J.5.3.F.;X2X!.c 6 > +       X           o   + + . +                               ",
"fXBXMXdXaXaXcXcXcXbXcXZXNXT.Y.8.r.r.r.8.A.P.D.6.3.b P T +X4X| u = + +       o   X         + O +           .               .     ",
"dXdXnXNXNXVXVXVXMXMXeXmXmXZXAXeX5X5XK.r.t.P.P.I.Q b x u H Q._ d = + + + O               + O O O                     .       o   ",
"dXaXdXnXNXmXeXNXCXCXAXAXCXNXZXiXpXpXtX5X7XP.K.wXA.b u 8 8 f d f O O O   o O     O . O       O   O     o                         ",
",X,X1X;X<X;XwXyXwXwX8X7X7X7X7XtXtX0XwXtXAXtXK.0X{.I r 6 O O - O +             O   +       O     X           o   .         O   . ",
"g.s.c.M.J.J.{.qXL.S.y.6.E.G.D.G.F.x.w.y.6X6Xu.6X}.T r = O   +       X             o   X   X X   o         O                     ",
"@.@.@.@.#.p.$.! p.9.{ W ! Y i x m M T Q 3.u.u.u.}.` i O     @ X X X X           O       X X X X   o             o           o   ",
"+.O.K O.O.O.@.O.Z Z V t 6 > > 0 6 6 u b I r.i.qX}.] 6 O & X   X   X   X @     @ @   X     X X                                   ",
" . . .L G h s s > > > ; - O + - O = > 7 r v ^ q.| J 0 - O O       X                     o X   X           #         o   .   o   ",
"G l h w < < ; = O O O O + + +     X O O > 6 f p d 0 > > ; O                 .           .         .       #   # #   o           ",
"j w ; O O O O   + O O     . . .     O O - > > > > > > , :       X                                   #                         O ",
"@ @ O   O @ @ @               .         - ; > , > , ; O       X   o   o         o           . O           #     # .   O #       ",
"X @ @ @ X X                     X         O O O O O           X             O                                           o       ",
"  X X X   X     X X X X       X     X X o       O                           o             o     .           #   # #     . #     ",
"  X     X X X X X   X   X     X       X o     X o o o                                                 #   4 -.-.-.-.k   O #     ",
"X       X               X X   X o X           o   .           X       o .           .           o         # -.;.;.;.k         o ",
"    .     X     X     O @ @                 o                         .   o                       o     * o z ;.k -.4       #   ",
"      o     .   @     o     O   +   O     X     X       +   O                           .         .     . % 2.FX;.:.k           ",
".   . O O . o O   O O O O O O @ + O +             o       + + O                     O . o                   e k 4 k #       #   ",
"+     O o O O         O o   O     +       . O .   .   +       . .             O     o           #       #         #   . #   .   ",
"    O                               o .       +   +     .     .           o                           O     #     # o           ",
"    .                                       O   +   +         o     o     .                         o #                         ",
"X       X           .   . . o .         +   + O O         o                       .             # .           #     # #         ",
"    X     X     o X     . . o .     . . . .   +   +   .     o   o                                     #   #         .         O "
};
