/* XPM */
static char *_1460738e2344b24d0bdf4012790491c0hvRS9KQYfeWldeP[] = {
/* columns rows colors chars-per-pixel */
"63 64 242 2 ",
"   c #060606",
".  c #0B0606",
"X  c #040A06",
"o  c #0B0A07",
"O  c #06060C",
"+  c #0C050C",
"@  c #040C0B",
"#  c #0C0C0C",
"$  c #120506",
"%  c #14050B",
"&  c #120D0D",
"*  c #170908",
"=  c #03120C",
"-  c #0C120C",
";  c #091509",
":  c #12120E",
">  c #18100E",
",  c #0C0E12",
"<  c #050F11",
"1  c #1C0412",
"2  c #140D12",
"3  c #1B0C14",
"4  c #1C0D1A",
"5  c #170A19",
"6  c #051211",
"7  c #0D1413",
"8  c #0D1A13",
"9  c #0E1419",
"0  c #0A1917",
"q  c #121212",
"w  c #1B1315",
"e  c #141914",
"r  c #151419",
"t  c #1C131B",
"y  c #1A1A1C",
"u  c #181A18",
"i  c #240115",
"p  c #230419",
"a  c #2B031C",
"s  c #240B1C",
"d  c #2A0B1E",
"f  c #240617",
"g  c #32001D",
"h  c #310A1F",
"j  c #22121D",
"k  c #2A111F",
"l  c #22171B",
"z  c #17221C",
"x  c #1E0B20",
"c  c #1A1721",
"v  c #2D0423",
"b  c #260C21",
"n  c #2B0C23",
"m  c #2E052A",
"M  c #340323",
"N  c #3A0325",
"B  c #330A24",
"V  c #390C25",
"C  c #3C032B",
"Z  c #350D2A",
"A  c #3B0C2C",
"S  c #33032B",
"D  c #241422",
"F  c #2B1225",
"G  c #2E1A2B",
"H  c #2A1827",
"J  c #321225",
"K  c #35122B",
"L  c #3A132D",
"P  c #351729",
"I  c #390D32",
"U  c #3C1332",
"Y  c #3B1A33",
"T  c #351732",
"R  c #192222",
"E  c #372735",
"W  c #42032B",
"Q  c #420A2E",
"!  c #47012A",
"~  c #53002F",
"^  c #42142E",
"/  c #440532",
"(  c #4D0332",
")  c #450B32",
"_  c #4B0B34",
"`  c #4C0D3B",
"'  c #480938",
"]  c #510334",
"[  c #530B36",
"{  c #5C023A",
"}  c #540D3B",
"|  c #5A0B3B",
" . c #5A0538",
".. c #431233",
"X. c #4A1235",
"o. c #451339",
"O. c #4C133B",
"+. c #471B39",
"@. c #52123C",
"#. c #57183D",
"$. c #65023E",
"%. c #630A3E",
"&. c #47253D",
"*. c #5B0C42",
"=. c #5D0541",
"-. c #4C1841",
";. c #541441",
":. c #5C1443",
">. c #551943",
",. c #5B1943",
"<. c #5B1A4A",
"1. c #4D0F40",
"2. c #640542",
"3. c #6A0544",
"4. c #640C44",
"5. c #6A0C45",
"6. c #6C064A",
"7. c #6B0B4B",
"8. c #670F49",
"9. c #730C4C",
"0. c #7A054D",
"q. c #641246",
"w. c #621C46",
"e. c #63154A",
"r. c #641C4B",
"t. c #6A1B4B",
"y. c #6B1449",
"u. c #73134C",
"i. c #731B4E",
"p. c #7C0D52",
"a. c #790C53",
"s. c #6C1852",
"d. c #731353",
"f. c #7B1455",
"g. c #741B54",
"h. c #7C1C5C",
"j. c #7A1857",
"k. c #6E0D50",
"l. c #5A2645",
"z. c #4F2146",
"x. c #6C234D",
"c. c #66274C",
"v. c #6A2A55",
"b. c #732454",
"n. c #772A5B",
"m. c #693555",
"M. c #76365A",
"N. c #70214E",
"B. c #7A3863",
"V. c #743363",
"C. c #5E4155",
"Z. c #70445F",
"A. c #7C4262",
"S. c #794365",
"D. c #7D506F",
"F. c #850C59",
"G. c #84135B",
"H. c #8B135F",
"J. c #851C5E",
"K. c #910E5C",
"L. c #83235E",
"P. c #8C1B63",
"I. c #891963",
"U. c #921B65",
"Y. c #951E6A",
"T. c #951966",
"R. c #842461",
"E. c #8B2D65",
"W. c #8D2B6B",
"Q. c #8B2467",
"!. c #93226C",
"~. c #95286A",
"^. c #8A3C6C",
"/. c #863768",
"(. c #942C72",
"). c #9B2973",
"_. c #9A3474",
"`. c #933B73",
"'. c #9D3B79",
"]. c #8F3771",
"[. c #A22C76",
"{. c #A4337B",
"}. c #A8397C",
"|. c #B2367E",
" X c #AA2C75",
".X c #83436B",
"XX c #85446A",
"oX c #8C4574",
"OX c #9D4579",
"+X c #9B4C7C",
"@X c #964576",
"#X c #8D537A",
"$X c #94537E",
"%X c #A34A7E",
"&X c #A2437E",
"*X c #AA3A81",
"=X c #B73B88",
"-X c #9C4B83",
";X c #9C5A83",
":X c #9F5F91",
">X c #A34B83",
",X c #A84684",
"<X c #B3448B",
"1X c #B34B8C",
"2X c #B8448B",
"3X c #A45484",
"4X c #AC5A8D",
"5X c #A75687",
"6X c #B4558D",
"7X c #AD4E91",
"8X c #BC4A92",
"9X c #BA4B95",
"0X c #BC5494",
"qX c #BE5A99",
"wX c #B75996",
"eX c #AE5A95",
"rX c #9E6089",
"tX c #A5648D",
"yX c #AC6593",
"uX c #BA689A",
"iX c #C24B94",
"pX c #C44E9A",
"aX c #C84997",
"sX c #C4559C",
"dX c #C45B9D",
"fX c #C9549B",
"gX c #CB4D96",
"hX c #C1629A",
"jX c #CB55A2",
"kX c #CC5AA4",
"lX c #D458A5",
"zX c #C967A6",
"xX c #DA66AC",
"cX c #C974AB",
"vX c #D472AC",
"bX c #DD6BB3",
"nX c #E36BB6",
"mX c #E473B9",
"MX c #EB74C0",
"NX c #F97DC8",
"BX c #D684B9",
"VX c #F185C8",
/* pixels */
"                                                                                                                              ",
"                                                        #                                                                     ",
"                                                                      #   #                                                   ",
"                                                    #         #                                                               ",
"                                          #                                                                                   ",
"                                                  #       #       #   #   # #       #                                         ",
"                                                    # # #   # #   #       #             #     #                               ",
"                                                #                     #       #   #                                           ",
"                            #                       #       #   # # #   # #             @                                     ",
"                              # #   #   # # #   # #     # #     # # # #   # # #     #           #   #                         ",
"                            # # # # # # # # # # # # # # # #   # # # # # # # # # # # # # # # # # # # #                         ",
"          # #       # # # # # # # # # # # # # # #     # #   # # # # # # # # # # # # # # # # # # # # #   # # #                 ",
"          #     # # # # # # q # # # # # # # # # # # # # # # # # # # # q # # # # # , # # : # # & # # # # # #   # #     #       ",
"          # # # # # # # q # # q # : , # , & # # # # # # # # & # # # # # # q 2 - # : # # & , # # q 2 & 7 # # # #     #         ",
"              # # q & # - & q q # # , # - 2 # - # # , # # # # # & # q # q q # & q q 7 q q q q q q q q # & # # # #   #   #     ",
"+   . # . # # # # & 2 2 5 2 , 7 , 7 q q 2 & 2 q 2 - # 7 - # : : # # # q & q r 2 w 5 r 3 r 5 r 3 4 f 4 3 2 , , - #     # #     ",
"+ + % $ $ * - - # k 1 s F D O 0 6 R r + 2 4 3 & r - @ = - : : $ : o : & o > 4 4 4 n b F x x T b Q O...g d s 7 6 = = # $ . .   ",
"O + % % * # - & > 1 V N i p H 9 R 9 + D n 1 F % , , 8 8 - & > > o - : w l 1 s s v Z 1 I S I m 1.^.mXuX! N f O 0 = = # $ $ .   ",
"@ @ O   o # - & j 1 A.rX.XO.L s x O b p h L i J 4 r r 7 9 # 3 & - z , r l 1 s V l.S.:XV.1.1.r.s.uX6X&X@XC K 5 6 6 = # # $ .   ",
"< @ @ @ ; - - 2 k L $XhX4Xn.Q ^ x +.S v X.g N d F t 2 9 t t 4 3 # y r 2 j n Y c.tXM.B.cXqX(.{ W.&X`.'.6Xr.) 4 q 6 6 , o # #   ",
"@ @ = @ ; - 7 3 d +.5X3XE.OXt.( >.M @._ ^.+XM.^ Z n b x x H F D D t D b Z V Q .Xx.~ 4.{ vXvX0X_.wXj._.E.%X! h s 9 6 7 # # # o ",
"@ @ @ o o - q 4 B Q 5X,Xu.1XE. .q.] N.%X%X@XuXc.C I K Z n m m I T v B ..X.W } @X4XL.5.$.9.'.dX6XwXs.3.u.wXb.X.d 4 9 7 <   # o ",
"+ + & # # > 3 s U C -XW.3.}.~.i.4.R.0X&X3.~ `.E.} ` ` ` O.o.o.' @.r.] | 4.y.'.&XzX].g.8.=.q.4XcX`.uXR.$.E.%X#.V x r 7 6 - @   ",
"% % $ & & q 4 b S <.eX7.d.1XE.i.'.qXJ.$.J.Q.qXE.8.=.1.<.n.V.s.k.OXvX~.9.$.f.wXf.8.wXg.q.:./ C yXuX-Xg.j.$.%X^.! b x 9 6 < o # ",
"$ * 2 & q 3 3 n N -XV.k.J.iXJ._.sX9.0.1XjX9XbXsX(.k.7.h.bXMXdX-XfXVX2Xp.H.F.1XE.4.-X@X1.' o.m v B.BXoXu.5.j.3X#.Z 5 , 9 6 @ # ",
"% 1 : # : r s B :.@Xd.6.~.2Xp.|.!.!._.jXI.H.=.(.sXa.d.Q.*X9XbXbX|.fXlXH.G.G.2X*X6.].V.1.U I n L v #.3X+Xy.%.OXn.I n 5 9 < O & ",
"# : @ = 8 r s A V.`.6.6. XiXT.xX*XH.jX!.a.Y.Y.!.pX*XI.Y.jXaXaXlXU.8XkX).!.).zX6Xd.s.<.X.Z n n T L i g XXyXy.^././ Z D 9 @ # & ",
"  = X = 8 u n ^ oXh.3.6.~.%X XgXjX9XjXI.I.pXkX=XjXlX=XF.=X=XK.=X2XQ.9XJ.!.kX(.wXn.*./ A Z n s j J P a f A.XXx.+X' N b r , - : ",
"# - = = 8 u B Q OX7.=.6.J.0XiX&X9XnX[.Y.pX=XH.a.0.Y.lXY.=XaXF.*XjX*X<X(.I.9Xd.eXn.4._ ..J k l > & D G s v l.<.+Xx.C p 4 9 , & ",
"& & = = 8 t h X.%X4.8.=.*.>XvXzXNXMXK.*X9Xa.f.!.Y.Y.=XT.=XjXF.Y.9XMXY.Y.(.dX*X=.e.#.O.L d w w > l & X E F a _ n.^.} a 4 5 # # ",
"1 1 : - r 4 V #.+X8.s.' C ;.B.`.*XaX=XnXH.I.*X=X*X).9X*XjXxX*XH.p.2XjX{.a.9X(.8.| @.^ k > > e 8 e e z 7 5 E i #.@Xw.N d 5 , & ",
"1 * * & 3 d X.x./.! ` / -.C C !  XaXNXT.T.9XNXbXsX=XMXjXH.*XpXH.Y.0.*XlX9XqX*Xk.q.[ h f l z e ; X u 8 - y H V W /.t._ h 5 q 7 ",
"* * * w s a c.oX#._ N A U Q [ j.gX=XjXK.=XlXI.!.(.7XW.h.9.H.iXnX!.Y.F.u.}.dX,Xb.:.) Z s r e 8 ; e e e e w l k A #.oX[ g 3 y   ",
"o o & 4 n S m.B.g @.Z p ..X.( i.xXlX XkXlXY.a.6.6.e.k.2.h.L.iX|.xX{.J.G.9.9.g.g.>.o.Z s l u ; ; - e e : w f l J @.XX| W 3 r   ",
"; o > j n ..D.r._ C A A A C ' 8.R.dX7XMXxX*X(.h.d.h.f.d.L.fXJ.9.p.sXdXL.9.9.4.=.:.' Z b t r - ; - e - e w j l F Q /.#.Q 4 r # ",
"; o 3 j m -.-X' W M A A S _ <.] g.cXcXk.' -XwX7Xh.j.G.u.1X,X4.$.%.$._.dX&Xj.s.e.:.O.L n t r e 8 - - e - q t t F N XXw.Q t 9 # ",
"; X w d m c.#XC W ) N W O./ / <.:.;.' 1.1.C *.d.k.a.a.*X1X=.*.t.y.%.~ j.6X>Xg.4.e.;.o.Y F t 9 r 8 8 8 : e w l D A S.w.N x 9 # ",
"; ; 5 d C V.S.C ;.` _ ` ;.>.v.D.-.) C I >.1.<.=.a.a.*X0X7.*.' <.( #.w.] | >X4Xb.:.@.X...T D x r r e 8 8 > r r D ^ XXw.M c 9 2 ",
"= 9 5 a / ^.v./ C @.#.( :.-X:XV.-.I -.o.O.>.} 8.9.G.sXu.] :.>.o...Q Q O.} ( b.uXn.r.O.O.o.T J D r r r r e w u D A .Xc.N D q & ",
"= 0 p M _ oXr.` @.` ! t.5X^.' S I T S -.) :.4.%.L.uXy. .<.o.+.m K F K L Q W ' ;.yXoXr.O.O...I J t y e r w r y D B A.c.N F 2 2 ",
"= r s M @.oX#.) X._ | +Xn.! ;.I T T X.O.]  .i.i.uXb.W ) -.U n K D D D F Z A Q ) _ /.tXv._ O.>.B F t w q w w r j B .Xx.^ k & > ",
"0 y s g ,.^.` ) ^ X.M./.[ @./ X.-.I Q [ t.5.u.uXt.@.A A Y J n G y y c D D Z V A _ ) v.;Xv.r.( O.Z j 3 w j w t j h M.N.N k * 3 ",
"9 r 1 M m.M.Q Q V ^ A.#.g [ W ) v O.,.} ~ E.5Xy.C L Y G D s D j u 9 9 y t D F Z B ^ g v.tX:.r.X.K j s w 3 w r l h m.A.h j 2 3 ",
"# 2 s J Z.m.V A h Y ^ V ^ N Q W ;.) [ ] /.4XN.! ) Y G D t c j q 8 8 8 9 r t j n v ..A g v.;Xw.X.L k j j w > r t d #.XXh D w % ",
"# * l G m.&.F J d J * j Y a X.W W @.#.+X+X[ ! ^ L F 5 3 l u w e q 7 - e e r r t s s +.v g #XS.O.L F s t w w 7 r s +.XXL D r # ",
"& & r t E D s k 3 l l r l k V Q  .i.4XoX_ Q V k b 4 t t e e - e : : : e e q r u t j 4 L U M #XB.L F j t w : 8 r l P m.K c 8 + ",
"* : r q r q l s w > z z q H h X.@X%Xr.C U Y T F s j l l > : ; ; : > * : : e q r y c 5 F d K A D.K n j t r : 8 8 f k ..F r 0 @ ",
". o q e # e H & u ; X z 9 l J X.c.Q C Z m x c D t j w : : - - ; : > : * - - 7 e 9 2 D 2 D n n d F D w r e 7 = 8 w 3 p 5 9 0 7 ",
"o : # : q q q q 2 : q r q r w j k j j l t t w r 2 q q 2 & q 7 : : & q # & 7 q q e q q r w 4 t t t r r : q q 7 7 r 2 3 q , 7 , ",
"# # # # # q : q 2 7 q q r e r u e w r w e r e r q q q q : 7 q q 7 : q q q q q q 2 q q r q r e e r q q e q q q : q q q q : # # ",
"# # # - & , 2 - - q 2 q q r w e e r r r q r w q q q : 2 q 2 q q 2 # : q q : 7 : q q q q q r r q q q q q q q , : & q 7 # # # # ",
"  # # # # 7 # q & 7 - q q q q e w q e q q q : q q q , - - 2 : , q q q # 2 7 2 : q : : q q > q q q q q & & 7 & q # # # & # # # ",
"  # # # # # 2 # & , , q > q q q q q q q q q 2 q & 7 7 # : 2 q q # & 7 : # q q q # 2 7 # 7 q : q 2 - q , - & , # 7 # & # # # # ",
"      # # # # # # - & # - 2 q # - q , q q , - - q & 2 - , - & 7 : , # 2 7 2 & 7 2 - # q & , # 2 # 2 & , # # # # # # # # # # # ",
"            # # # 7 # q # & - 2 , & 7 & : # q 2 # , : 2 # & # q & 7 7 & 2 - & 7 # 7 & 7 7 & # 7 - 2 # - # # # # #   # # # #   ",
"        # # # # # # # # q 7 # # # & # , - 2 # # 7 & # # & 7 q # , # 2 - : , q q & # & # # & # & # # # # # # # # #           # ",
"          # # # # # # # q 7 & # # # # - & , , : # # # & # 2 & , : # & - 2 - , & # , # # # # # # # # # # #     #   # #   #   # ",
"  #     #   # # # # # & # # # # # # & , # : & 7 q : , 7 7 # - # # q , : # q & 7 # & & - # # # # # # # # # # # # #     #   #   ",
"      #   # # #   # # # - # , # # # # # , - , # # 2 & # # & # q q q 2 , & q , & , # & # # # # # # # # # #   #       # #   # # ",
"          #   # # #   # # & # # # # # # & # # & # # # 7 # # # & # # # - # # , - - # # # # , # # # # # # # # #   #             ",
"      # #   # # #     # # # # # # # # 7 # # # # - , # & q # # # # q # , 7 # 7 & # # # #   # # # # # #   #   # # #       # #   ",
"                  # # # # # # # # # # # , # # # # # - # # # # 7 # # : & # & , # # # , # # # # # # # # # #           # #       ",
"        #     #       #   # #   # # # # # # # # # & # , & # # - , & 7 # # , # & # # #   # #   # # # #     #               #   ",
"  #                   # # # # # # & # # # # # # # # # # , # # # # # # # & # - # # # # + # # # #   # # # #   # #               "
};
