/* XPM */
static char *_b74d98fbac146acad0977ed005cd81cEiUV6xhDChCw3OAz[] = {
/* columns rows colors chars-per-pixel */
"33 64 225 2 ",
"   c #010101",
".  c #0B0001",
"X  c #010A02",
"o  c #0B0C03",
"O  c #02010B",
"+  c #0B030A",
"@  c #010B0A",
"#  c #0B0B0B",
"$  c #120002",
"%  c #11030B",
"&  c #170808",
"*  c #011900",
"=  c #03120B",
"-  c #091207",
";  c #191309",
":  c #030211",
">  c #0A0213",
",  c #020B14",
"<  c #020318",
"1  c #0D001A",
"2  c #070B18",
"3  c #130015",
"4  c #1C0113",
"5  c #130419",
"6  c #160719",
"7  c #031617",
"8  c #141413",
"9  c #13141B",
"0  c #181A19",
"q  c #20020E",
"w  c #250616",
"e  c #320010",
"r  c #27111D",
"t  c #1C251B",
"y  c #1D281A",
"u  c #173116",
"i  c #21200E",
"p  c #2E2618",
"a  c #0E0C2A",
"s  c #1B0022",
"d  c #170626",
"f  c #061624",
"g  c #191428",
"h  c #1D0831",
"j  c #1A1831",
"k  c #290427",
"l  c #38092B",
"z  c #221628",
"x  c #35192B",
"c  c #270630",
"v  c #330E36",
"b  c #2B1935",
"n  c #1A272B",
"m  c #0E312D",
"M  c #1E2636",
"N  c #033A36",
"B  c #1C3C34",
"V  c #143639",
"C  c #13332E",
"Z  c gray15",
"A  c #282A2C",
"S  c #342527",
"D  c #243327",
"F  c #353129",
"G  c #262737",
"H  c #382836",
"J  c #313132",
"K  c #333C33",
"L  c #3E3433",
"P  c #27383F",
"I  c #48283D",
"U  c #453739",
"Y  c #43352C",
"T  c #3F422D",
"R  c #364239",
"E  c #375231",
"W  c #50423F",
"Q  c #0C3B41",
"!  c #3B2846",
"~  c #383B48",
"^  c #382D56",
"/  c #31314E",
"(  c #4A0443",
")  c #531B56",
"_  c #411C45",
"`  c #641754",
"'  c #542F40",
"]  c #43324B",
"[  c #4C314C",
"{  c #5B2455",
"}  c #453350",
"|  c #483B56",
" . c #53395A",
".. c #45294F",
"X. c #642D5E",
"o. c #673354",
"O. c #543466",
"+. c #67286A",
"@. c #643A65",
"#. c #773278",
"$. c #721367",
"%. c #124B4B",
"&. c #364956",
"*. c #334C50",
"=. c #3B5E65",
"-. c #304E63",
";. c #2F6067",
":. c #494A48",
">. c #574548",
",. c #4C584C",
"<. c #55594B",
"1. c #464457",
"2. c #554757",
"3. c #52515F",
"4. c #4E5E53",
"5. c #614F4F",
"6. c #665759",
"7. c #7D595B",
"8. c #506759",
"9. c #65675A",
"0. c #79675E",
"q. c #6B755C",
"w. c #584764",
"e. c #595666",
"r. c #495D66",
"t. c #684863",
"y. c #68576A",
"u. c #675675",
"i. c #775E7E",
"p. c #5A6767",
"a. c #5B6875",
"s. c #50797F",
"d. c #41626B",
"f. c #696564",
"g. c #737A6A",
"h. c #696772",
"j. c #766876",
"k. c #7B7776",
"l. c #726D67",
"z. c #833176",
"x. c #815F60",
"c. c #935977",
"v. c #866678",
"b. c #877877",
"n. c #9F767A",
"m. c #7E8B7D",
"M. c #758279",
"N. c #868777",
"B. c #497A88",
"V. c #7D6687",
"C. c #78758C",
"Z. c #843880",
"A. c #8B4181",
"S. c #804480",
"D. c #865A83",
"F. c #AA5899",
"G. c #B05793",
"H. c #8E6883",
"J. c #90618D",
"K. c #8C7E88",
"L. c #857C95",
"P. c #9B7A8B",
"I. c #A86399",
"U. c #9C58A5",
"Y. c #B353A9",
"T. c #B05CAF",
"R. c #BD67BB",
"E. c #B661A5",
"W. c #CB58B9",
"Q. c #D058B1",
"!. c #E45CBE",
"~. c #D26CB3",
"^. c #F07EBC",
"/. c #E074B2",
"(. c #D15DC2",
"). c #E65DC8",
"_. c #D562C5",
"`. c #D06CC4",
"'. c #E86AC4",
"]. c #E177C6",
"[. c #558C92",
"{. c #68859A",
"}. c #52A29F",
"|. c #6B9BA5",
" X c #68A3A9",
".X c #79E2DE",
"XX c #7DE4E0",
"oX c #69D2CE",
"OX c #97868B",
"+X c #898B9C",
"@X c #948896",
"#X c #8B9092",
"$X c #A98897",
"%X c #95A08F",
"&X c #9FB99E",
"*X c #A8A296",
"=X c #8A86A5",
"-X c #B08CA6",
";X c #82BDBD",
":X c #8DA4B2",
">X c #A8B6AA",
",X c #BFB0AD",
"<X c #B5AAB0",
"1X c #D29EA2",
"2X c #D7A9AC",
"3X c #B7C3B9",
"4X c #CAC7B6",
"5X c #98B3C8",
"6X c #AFAAC0",
"7X c #BDABC3",
"8X c #D78CC5",
"9X c #EA9BC4",
"0X c #C2A4C6",
"qX c #EDB2D0",
"wX c #81D5D5",
"eX c #A5DCDF",
"rX c #90F0EE",
"tX c #9DF8F8",
"yX c #9CE6E8",
"uX c #A2FFFF",
"iX c #AAE7F1",
"pX c #D4DAC8",
"aX c #CEDACF",
"sX c #D4E5DB",
"dX c #F6F8ED",
/* pixels */
". .     X       O O O . & $       . . & . O + 3                   ",
".       X X O O +       $ $   X   +       . .   .                 ",
"              .   + O O >   X @   @     o   .     O O O           ",
"            . .   O   O O O = N f O O X     X     O : +           ",
"            . $ +     O O 2 ;.;X{.f O   X X X     O O : O         ",
"            $ .   O , , : f B.iX5XM ,     X X     O   O           ",
"O           . . .   O O a a -.B.-.G O O       X             O O   ",
"O           . . . O O : h ^ ^ ^ G 3.9 : ,                 O O O   ",
"O             .     O > k +.u.+...j.: 6     .             O O O   ",
"O O     X     .   @ + 3 l Y.Z.S.0XH 4 + . .   .             O     ",
"O         X       O O 3 ` G.z.Z.J.[ $ $ $ & . .     O O O         ",
"        X         O : v G.~.Y.` c.I r 0.0.. ;       : O O         ",
"                  , G =XI.G.#.X. .I q Y dXp       O O : O         ",
"            .   @ O a.C.V.X.@.@.y.l.; *X4Xi o o   O O O           ",
"            +   O f *.a. .V.u.e.dXN.<.<.i 9.              .       ",
"            .   O @ &.r.L.1  .e.b.W g.<.>X,.X                     ",
"    O O   .     @   B a.<X6 V.7Xt.$Xl.m.&Xu *     . O O           ",
"      O . .     X   B 8.l.r 7XV.H.-X6.g.* E   X   O + O O         ",
"                  8 B B R ~ 6X< y.K.b.:.pXq.X o     O O O         ",
"                .   X 7 %.:X1.< f.k.U F 9.W -     O O O           ",
"            O @ & .   n [.;.f O y.j.& F M.W * X     O             ",
"    . . O O O + $ $ Y p.|.%. X=.~ 2.  8 4X%XX X   O O O           ",
"          O O   . U K.+X;.iXtXeX2.k % 8 aX8.X *     O   O .       ",
"    .         . & OXv.h.=.yXtXyXe.x   X W D X         O     .     ",
"      .     . . J K.v.y.~  XuXrX*.G . % 5.S .   X X               ",
"X           .   f.h.$XI :.%.rXoX%.n + w I x .                     ",
"    O O   . . . k.OXP.$X:.m }..XN V 2 w c.e q                 X   ",
"      O   . . p :.@Xo.OX#X7 [.wX}.m O l qXo.% .             X X   ",
".       X   $ W S . 3.6.#X*.B.V =.h.6 x j.w . O                   ",
"$ .     X   o 5.7.0.2X:.A h.1.+X0Xe.} e.C.n O @     .             ",
"$ . X X       [ 1X2Xb.:.7 &.h.H.9X9Xt.V  X%.=     .         . .   ",
".   X   X @   U 2Xn.f.R   A 2.c.9X/.I.&.Q * = X   .         . .   ",
"        X     J 2.y.e.&.+   2.o.].Q.8Xt.# X X @   .               ",
"    O         J =X=X^ ~   # O @.Y.~.].I.w     @ O O     .   O O   ",
"    O         Z ~ a C.b O +   v #.`.!./.l       O O   . .     O   ",
"    O         0 C.=XC.1     > : _ F.).'.{ + X X O O . . . . O O   ",
"X   X         6 h.L. .d     O + > X.!.).Z.3 #   O O . . $     O O ",
"    O O   . . % w.| u.: O     2 O v W.).Y.k     O   . $ . . O O   ",
"X     O . . . . } V.] + 0 #   O   4 #._.W.( +       . . .     @   ",
"X   O     . . . } u.} O       O O > c T.(.$.s O     . . .         ",
"      O   . . . _ 2.b :           O 1 ) _.Y.s d     . . +         ",
"  X   O   . . . ! w.b +             : c #.R.+.5   X     + > X     ",
"      O   . . . ! 1.b + .       +   + : c U.R.)   X     < O       ",
"X   O         . b } j +           O     1 +.T.A.z X   + 1 +       ",
"      O         j / g   .       +   X   5 v +.( } 9     > O       ",
"    O           g ! 9 O         O   X X   k ) s b a > O     X     ",
"    O O         f G 9 O       . .   * X . w ..h d h 6 +   X       ",
"            X   2 j <   .   .   +   X X . $ d j ^ c >     X       ",
"                  e.0                       O O , , O     X   .   ",
"                8 Z     #                     X X   @ X 7     #   ",
"                #       #                         R   X @         ",
"                8 Z 8                         X X %Xp.X   X o .   ",
"                J f.Z +                       X = M.sXC   -       ",
"                J 9.# #                           4.dX&XX     8   ",
"                8 Z                           X X n R m.K -       ",
"                                                X - X y ,.    o   ",
"                                                X X X X p     o   ",
"                                                  X - X   X o     ",
"                                                X {.aX3Xy   X     ",
"                                          .     - i K M.K X       ",
"                                                  -         8     ",
"                                          .       X   = 9     +   ",
"                                        .               @         ",
"                                        .       O   @ X     O     "
};
